<?xml version="1.0" encoding="utf-8" standalone="no"?>
<!DOCTYPE svg PUBLIC "-//W3C//DTD SVG 1.1//EN"
  "http://www.w3.org/Graphics/SVG/1.1/DTD/svg11.dtd">
<svg xmlns:xlink="http://www.w3.org/1999/xlink" width="243.218047pt" height="139.484523pt" viewBox="0 0 243.218047 139.484523" xmlns="http://www.w3.org/2000/svg" version="1.1">
 <metadata>
  <rdf:RDF xmlns:dc="http://purl.org/dc/elements/1.1/" xmlns:cc="http://creativecommons.org/ns#" xmlns:rdf="http://www.w3.org/1999/02/22-rdf-syntax-ns#">
   <cc:Work>
    <dc:type rdf:resource="http://purl.org/dc/dcmitype/StillImage"/>
    <dc:date>2026-03-06T10:03:38.937762</dc:date>
    <dc:format>image/svg+xml</dc:format>
    <dc:creator>
     <cc:Agent>
      <dc:title>Matplotlib v3.10.8, https://matplotlib.org/</dc:title>
     </cc:Agent>
    </dc:creator>
   </cc:Work>
  </rdf:RDF>
 </metadata>
 <defs>
  <style type="text/css">*{stroke-linejoin: round; stroke-linecap: butt}</style>
 </defs>
 <g id="figure_1">
  <g id="patch_1">
   <path d="M 0 139.484523 
L 243.218047 139.484523 
L 243.218047 0 
L 0 0 
z
" style="fill: #ffffff"/>
  </g>
  <g id="axes_1">
   <g id="patch_2">
    <path d="M 37.73125 107.660304 
L 118.41125 107.660304 
L 118.41125 18.685904 
L 37.73125 18.685904 
z
" style="fill: #ffffff"/>
   </g>
   <g id="FillBetweenPolyCollection_1">
    <defs>
     <path id="madacdd0291" d="M 37.73125 -35.86851 
L 37.73125 -35.86851 
L 45.065795 -63.539204 
L 52.400341 -58.904333 
L 59.734886 -46.852122 
L 67.069432 -50.971762 
L 74.403977 -46.457508 
L 81.738523 -52.534147 
L 89.073068 -58.734779 
L 96.407614 -58.225652 
L 103.742159 -74.963653 
L 111.076705 -94.240355 
L 118.41125 -84.07987 
L 118.41125 -84.841685 
L 118.41125 -84.841685 
L 111.076705 -94.8804 
L 103.742159 -75.58193 
L 96.407614 -58.618889 
L 89.073068 -59.11165 
L 81.738523 -52.808075 
L 74.403977 -46.701289 
L 67.069432 -51.114079 
L 59.734886 -46.980343 
L 52.400341 -59.394916 
L 45.065795 -64.210103 
L 37.73125 -35.86851 
z
" style="stroke: #ee6677; stroke-opacity: 0.12"/>
    </defs>
    <g clip-path="url(#p9eee57a549)">
     <use xlink:href="#madacdd0291" x="0" y="139.484523" style="fill: #ee6677; fill-opacity: 0.12; stroke: #ee6677; stroke-opacity: 0.12"/>
    </g>
   </g>
   <g id="FillBetweenPolyCollection_2">
    <defs>
     <path id="m8317a2ecec" d="M 37.73125 -35.86851 
L 37.73125 -35.86851 
L 45.065795 -36.182669 
L 52.400341 -36.391775 
L 59.734886 -36.02053 
L 67.069432 -36.10804 
L 74.403977 -36.126431 
L 81.738523 -36.147214 
L 89.073068 -36.389015 
L 96.407614 -36.698004 
L 103.742159 -37.261248 
L 111.076705 -37.125658 
L 118.41125 -37.407508 
L 118.41125 -37.484812 
L 118.41125 -37.484812 
L 111.076705 -37.19907 
L 103.742159 -37.350858 
L 96.407614 -36.745549 
L 89.073068 -36.420447 
L 81.738523 -36.164502 
L 74.403977 -36.148059 
L 67.069432 -36.125485 
L 59.734886 -36.035468 
L 52.400341 -36.462018 
L 45.065795 -36.224112 
L 37.73125 -35.86851 
z
" style="stroke: #ee6677; stroke-opacity: 0.12"/>
    </defs>
    <g clip-path="url(#p9eee57a549)">
     <use xlink:href="#m8317a2ecec" x="0" y="139.484523" style="fill: #ee6677; fill-opacity: 0.12; stroke: #ee6677; stroke-opacity: 0.12"/>
    </g>
   </g>
   <g id="FillBetweenPolyCollection_3">
    <defs>
     <path id="mf92237339c" d="M 37.73125 -35.86851 
L 37.73125 -35.86851 
L 45.065795 -40.494076 
L 52.400341 -48.033311 
L 59.734886 -43.201829 
L 67.069432 -47.220222 
L 74.403977 -40.110246 
L 81.738523 -40.243926 
L 89.073068 -40.775691 
L 96.407614 -39.698427 
L 103.742159 -40.277435 
L 111.076705 -39.402413 
L 118.41125 -44.451267 
L 118.41125 -44.758257 
L 118.41125 -44.758257 
L 111.076705 -39.52686 
L 103.742159 -40.412252 
L 96.407614 -39.780755 
L 89.073068 -40.878815 
L 81.738523 -40.327328 
L 74.403977 -40.249902 
L 67.069432 -47.494368 
L 59.734886 -43.427364 
L 52.400341 -48.320892 
L 45.065795 -40.644889 
L 37.73125 -35.86851 
z
" style="stroke: #ee6677; stroke-opacity: 0.12"/>
    </defs>
    <g clip-path="url(#p9eee57a549)">
     <use xlink:href="#mf92237339c" x="0" y="139.484523" style="fill: #ee6677; fill-opacity: 0.12; stroke: #ee6677; stroke-opacity: 0.12"/>
    </g>
   </g>
   <g id="FillBetweenPolyCollection_4">
    <defs>
     <path id="m2a63848ad4" d="M 37.73125 -35.86851 
L 37.73125 -35.86851 
L 45.065795 -68.071585 
L 52.400341 -85.139787 
L 59.734886 -92.564139 
L 67.069432 -87.930864 
L 74.403977 -92.077851 
L 81.738523 -93.928648 
L 89.073068 -107.673437 
L 96.407614 -114.403373 
L 103.742159 -108.210572 
L 111.076705 -116.064144 
L 118.41125 -95.383542 
L 118.41125 -96.024481 
L 118.41125 -96.024481 
L 111.076705 -116.754328 
L 103.742159 -108.735653 
L 96.407614 -115.240981 
L 89.073068 -108.233218 
L 81.738523 -94.54556 
L 74.403977 -92.720683 
L 67.069432 -88.469066 
L 59.734886 -93.616176 
L 52.400341 -85.686963 
L 45.065795 -69.129907 
L 37.73125 -35.86851 
z
" style="stroke: #228833; stroke-opacity: 0.12"/>
    </defs>
    <g clip-path="url(#p9eee57a549)">
     <use xlink:href="#m2a63848ad4" x="0" y="139.484523" style="fill: #228833; fill-opacity: 0.12; stroke: #228833; stroke-opacity: 0.12"/>
    </g>
   </g>
   <g id="FillBetweenPolyCollection_5">
    <defs>
     <path id="mab76352a02" d="M 37.73125 -35.86851 
L 37.73125 -35.86851 
L 45.065795 -35.937508 
L 52.400341 -36.133316 
L 59.734886 -36.046087 
L 67.069432 -36.060792 
L 74.403977 -36.02956 
L 81.738523 -36.062334 
L 89.073068 -36.102747 
L 96.407614 -36.031767 
L 103.742159 -36.148066 
L 111.076705 -36.190641 
L 118.41125 -36.110359 
L 118.41125 -36.132057 
L 118.41125 -36.132057 
L 111.076705 -36.210958 
L 103.742159 -36.165683 
L 96.407614 -36.044344 
L 89.073068 -36.118425 
L 81.738523 -36.076722 
L 74.403977 -36.046785 
L 67.069432 -36.083149 
L 59.734886 -36.064617 
L 52.400341 -36.158554 
L 45.065795 -35.946288 
L 37.73125 -35.86851 
z
" style="stroke: #228833; stroke-opacity: 0.12"/>
    </defs>
    <g clip-path="url(#p9eee57a549)">
     <use xlink:href="#mab76352a02" x="0" y="139.484523" style="fill: #228833; fill-opacity: 0.12; stroke: #228833; stroke-opacity: 0.12"/>
    </g>
   </g>
   <g id="FillBetweenPolyCollection_6">
    <defs>
     <path id="mea7f47abf6" d="M 37.73125 -35.86851 
L 37.73125 -35.86851 
L 45.065795 -43.905219 
L 52.400341 -42.306544 
L 59.734886 -39.019118 
L 67.069432 -39.902021 
L 74.403977 -38.363013 
L 81.738523 -37.44134 
L 89.073068 -42.076647 
L 96.407614 -39.742471 
L 103.742159 -39.855374 
L 111.076705 -39.602219 
L 118.41125 -39.187208 
L 118.41125 -39.270189 
L 118.41125 -39.270189 
L 111.076705 -39.678387 
L 103.742159 -39.917232 
L 96.407614 -39.812482 
L 89.073068 -42.201009 
L 81.738523 -37.466491 
L 74.403977 -38.406495 
L 67.069432 -39.951724 
L 59.734886 -39.083729 
L 52.400341 -42.402259 
L 45.065795 -44.206568 
L 37.73125 -35.86851 
z
" style="stroke: #228833; stroke-opacity: 0.12"/>
    </defs>
    <g clip-path="url(#p9eee57a549)">
     <use xlink:href="#mea7f47abf6" x="0" y="139.484523" style="fill: #228833; fill-opacity: 0.12; stroke: #228833; stroke-opacity: 0.12"/>
    </g>
   </g>
   <g id="FillBetweenPolyCollection_7">
    <defs>
     <path id="m8209c37df7" d="M 37.73125 -35.86851 
L 37.73125 -35.86851 
L 45.065795 -54.602552 
L 52.400341 -59.625431 
L 59.734886 -56.579694 
L 67.069432 -60.226322 
L 74.403977 -55.254111 
L 81.738523 -58.918021 
L 89.073068 -59.526016 
L 96.407614 -70.535907 
L 103.742159 -92.335981 
L 111.076705 -103.554087 
L 118.41125 -113.700239 
L 118.41125 -114.503144 
L 118.41125 -114.503144 
L 111.076705 -104.110369 
L 103.742159 -92.79143 
L 96.407614 -70.874224 
L 89.073068 -59.774329 
L 81.738523 -59.161771 
L 74.403977 -55.537061 
L 67.069432 -60.454357 
L 59.734886 -56.771724 
L 52.400341 -59.957097 
L 45.065795 -54.856618 
L 37.73125 -35.86851 
z
" style="stroke: #f4a0a8; stroke-opacity: 0.08"/>
    </defs>
    <g clip-path="url(#p9eee57a549)">
     <use xlink:href="#m8209c37df7" x="0" y="139.484523" style="fill: #f4a0a8; fill-opacity: 0.08; stroke: #f4a0a8; stroke-opacity: 0.08"/>
    </g>
   </g>
   <g id="FillBetweenPolyCollection_8">
    <defs>
     <path id="m8d81951bcc" d="M 37.73125 -35.86851 
L 37.73125 -35.86851 
L 45.065795 -36.24993 
L 52.400341 -36.347769 
L 59.734886 -36.207395 
L 67.069432 -36.172916 
L 74.403977 -36.198494 
L 81.738523 -36.243673 
L 89.073068 -36.490479 
L 96.407614 -36.832691 
L 103.742159 -37.228772 
L 111.076705 -38.214671 
L 118.41125 -38.748475 
L 118.41125 -38.907164 
L 118.41125 -38.907164 
L 111.076705 -38.355572 
L 103.742159 -37.309181 
L 96.407614 -36.907286 
L 89.073068 -36.550637 
L 81.738523 -36.294348 
L 74.403977 -36.249129 
L 67.069432 -36.212124 
L 59.734886 -36.242025 
L 52.400341 -36.414659 
L 45.065795 -36.294135 
L 37.73125 -35.86851 
z
" style="stroke: #f4a0a8; stroke-opacity: 0.08"/>
    </defs>
    <g clip-path="url(#p9eee57a549)">
     <use xlink:href="#m8d81951bcc" x="0" y="139.484523" style="fill: #f4a0a8; fill-opacity: 0.08; stroke: #f4a0a8; stroke-opacity: 0.08"/>
    </g>
   </g>
   <g id="FillBetweenPolyCollection_9">
    <defs>
     <path id="mcae06ea9f1" d="M 37.73125 -35.86851 
L 37.73125 -35.86851 
L 45.065795 -40.129139 
L 52.400341 -42.271096 
L 59.734886 -40.046128 
L 67.069432 -41.728232 
L 74.403977 -40.234409 
L 81.738523 -39.925037 
L 89.073068 -40.191925 
L 96.407614 -40.774414 
L 103.742159 -40.062758 
L 111.076705 -40.801394 
L 118.41125 -40.694457 
L 118.41125 -40.881861 
L 118.41125 -40.881861 
L 111.076705 -40.918844 
L 103.742159 -40.144073 
L 96.407614 -40.852987 
L 89.073068 -40.261752 
L 81.738523 -39.994165 
L 74.403977 -40.328314 
L 67.069432 -41.854985 
L 59.734886 -40.193128 
L 52.400341 -42.387094 
L 45.065795 -40.207725 
L 37.73125 -35.86851 
z
" style="stroke: #f4a0a8; stroke-opacity: 0.08"/>
    </defs>
    <g clip-path="url(#p9eee57a549)">
     <use xlink:href="#mcae06ea9f1" x="0" y="139.484523" style="fill: #f4a0a8; fill-opacity: 0.08; stroke: #f4a0a8; stroke-opacity: 0.08"/>
    </g>
   </g>
   <g id="FillBetweenPolyCollection_10">
    <defs>
     <path id="m9073266f9a" d="M 37.73125 -35.86851 
L 37.73125 -35.86851 
L 45.065795 -68.690853 
L 52.400341 -57.701557 
L 59.734886 -62.493546 
L 67.069432 -67.391023 
L 74.403977 -73.576559 
L 81.738523 -82.917109 
L 89.073068 -81.220619 
L 96.407614 -104.886867 
L 103.742159 -111.369692 
L 111.076705 -114.88334 
L 118.41125 -97.254768 
L 118.41125 -98.001841 
L 118.41125 -98.001841 
L 111.076705 -115.577507 
L 103.742159 -111.986129 
L 96.407614 -105.507072 
L 89.073068 -81.533344 
L 81.738523 -83.275631 
L 74.403977 -74.020665 
L 67.069432 -67.728705 
L 59.734886 -62.867828 
L 52.400341 -57.925984 
L 45.065795 -69.364701 
L 37.73125 -35.86851 
z
" style="stroke: #80c48a; stroke-opacity: 0.08"/>
    </defs>
    <g clip-path="url(#p9eee57a549)">
     <use xlink:href="#m9073266f9a" x="0" y="139.484523" style="fill: #80c48a; fill-opacity: 0.08; stroke: #80c48a; stroke-opacity: 0.08"/>
    </g>
   </g>
   <g id="FillBetweenPolyCollection_11">
    <defs>
     <path id="mc416868ee7" d="M 37.73125 -35.86851 
L 37.73125 -35.86851 
L 45.065795 -36.03882 
L 52.400341 -36.245705 
L 59.734886 -35.979388 
L 67.069432 -35.947445 
L 74.403977 -35.970612 
L 81.738523 -36.023017 
L 89.073068 -36.116402 
L 96.407614 -36.212129 
L 103.742159 -36.403515 
L 111.076705 -36.569391 
L 118.41125 -36.45135 
L 118.41125 -36.519748 
L 118.41125 -36.519748 
L 111.076705 -36.627344 
L 103.742159 -36.436343 
L 96.407614 -36.237717 
L 89.073068 -36.134413 
L 81.738523 -36.037259 
L 74.403977 -35.985994 
L 67.069432 -35.959725 
L 59.734886 -36.002137 
L 52.400341 -36.309511 
L 45.065795 -36.071112 
L 37.73125 -35.86851 
z
" style="stroke: #80c48a; stroke-opacity: 0.08"/>
    </defs>
    <g clip-path="url(#p9eee57a549)">
     <use xlink:href="#mc416868ee7" x="0" y="139.484523" style="fill: #80c48a; fill-opacity: 0.08; stroke: #80c48a; stroke-opacity: 0.08"/>
    </g>
   </g>
   <g id="FillBetweenPolyCollection_12">
    <defs>
     <path id="me6d6613615" d="M 37.73125 -35.86851 
L 37.73125 -35.86851 
L 45.065795 -39.098327 
L 52.400341 -40.678934 
L 59.734886 -42.221752 
L 67.069432 -40.334914 
L 74.403977 -40.574075 
L 81.738523 -40.961988 
L 89.073068 -42.346152 
L 96.407614 -41.384771 
L 103.742159 -42.078932 
L 111.076705 -42.799013 
L 118.41125 -43.611279 
L 118.41125 -43.832293 
L 118.41125 -43.832293 
L 111.076705 -43.035208 
L 103.742159 -42.207842 
L 96.407614 -41.494044 
L 89.073068 -42.427073 
L 81.738523 -41.022293 
L 74.403977 -40.626127 
L 67.069432 -40.377014 
L 59.734886 -42.288337 
L 52.400341 -40.753774 
L 45.065795 -39.155713 
L 37.73125 -35.86851 
z
" style="stroke: #80c48a; stroke-opacity: 0.08"/>
    </defs>
    <g clip-path="url(#p9eee57a549)">
     <use xlink:href="#me6d6613615" x="0" y="139.484523" style="fill: #80c48a; fill-opacity: 0.08; stroke: #80c48a; stroke-opacity: 0.08"/>
    </g>
   </g>
   <g id="matplotlib.axis_1">
    <g id="xtick_1">
     <g id="line2d_1">
      <defs>
       <path id="ma9fccb0748" d="M 0 0 
L 0 3.5 
" style="stroke: #000000; stroke-width: 0.6"/>
      </defs>
      <g>
       <use xlink:href="#ma9fccb0748" x="37.73125" y="107.660304" style="stroke: #000000; stroke-width: 0.6"/>
      </g>
     </g>
     <g id="text_1">
      <!-- 0 -->
      <g transform="translate(35.98125 119.520929) scale(0.07 -0.07)">
       <defs>
        <path id="TimesNewRomanPSMT-30" d="M 231 2094 
Q 231 2819 450 3342 
Q 669 3866 1031 4122 
Q 1313 4325 1613 4325 
Q 2100 4325 2488 3828 
Q 2972 3213 2972 2159 
Q 2972 1422 2759 906 
Q 2547 391 2217 158 
Q 1888 -75 1581 -75 
Q 975 -75 572 641 
Q 231 1244 231 2094 
z
M 844 2016 
Q 844 1141 1059 588 
Q 1238 122 1591 122 
Q 1759 122 1940 273 
Q 2122 425 2216 781 
Q 2359 1319 2359 2297 
Q 2359 3022 2209 3506 
Q 2097 3866 1919 4016 
Q 1791 4119 1609 4119 
Q 1397 4119 1231 3928 
Q 1006 3669 925 3112 
Q 844 2556 844 2016 
z
" transform="scale(0.015625)"/>
       </defs>
       <use xlink:href="#TimesNewRomanPSMT-30"/>
      </g>
     </g>
    </g>
    <g id="xtick_2">
     <g id="line2d_2">
      <g>
       <use xlink:href="#ma9fccb0748" x="52.400341" y="107.660304" style="stroke: #000000; stroke-width: 0.6"/>
      </g>
     </g>
     <g id="text_2">
      <!-- 2 -->
      <g transform="translate(50.650341 119.520929) scale(0.07 -0.07)">
       <defs>
        <path id="TimesNewRomanPSMT-32" d="M 2934 816 
L 2638 0 
L 138 0 
L 138 116 
Q 1241 1122 1691 1759 
Q 2141 2397 2141 2925 
Q 2141 3328 1894 3587 
Q 1647 3847 1303 3847 
Q 991 3847 742 3664 
Q 494 3481 375 3128 
L 259 3128 
Q 338 3706 661 4015 
Q 984 4325 1469 4325 
Q 1984 4325 2329 3994 
Q 2675 3663 2675 3213 
Q 2675 2891 2525 2569 
Q 2294 2063 1775 1497 
Q 997 647 803 472 
L 1909 472 
Q 2247 472 2383 497 
Q 2519 522 2628 598 
Q 2738 675 2819 816 
L 2934 816 
z
" transform="scale(0.015625)"/>
       </defs>
       <use xlink:href="#TimesNewRomanPSMT-32"/>
      </g>
     </g>
    </g>
    <g id="xtick_3">
     <g id="line2d_3">
      <g>
       <use xlink:href="#ma9fccb0748" x="67.069432" y="107.660304" style="stroke: #000000; stroke-width: 0.6"/>
      </g>
     </g>
     <g id="text_3">
      <!-- 4 -->
      <g transform="translate(65.319432 119.520929) scale(0.07 -0.07)">
       <defs>
        <path id="TimesNewRomanPSMT-34" d="M 2978 1563 
L 2978 1119 
L 2409 1119 
L 2409 0 
L 1894 0 
L 1894 1119 
L 100 1119 
L 100 1519 
L 2066 4325 
L 2409 4325 
L 2409 1563 
L 2978 1563 
z
M 1894 1563 
L 1894 3666 
L 406 1563 
L 1894 1563 
z
" transform="scale(0.015625)"/>
       </defs>
       <use xlink:href="#TimesNewRomanPSMT-34"/>
      </g>
     </g>
    </g>
    <g id="xtick_4">
     <g id="line2d_4">
      <g>
       <use xlink:href="#ma9fccb0748" x="81.738523" y="107.660304" style="stroke: #000000; stroke-width: 0.6"/>
      </g>
     </g>
     <g id="text_4">
      <!-- 6 -->
      <g transform="translate(79.988523 119.520929) scale(0.07 -0.07)">
       <defs>
        <path id="TimesNewRomanPSMT-36" d="M 2869 4325 
L 2869 4209 
Q 2456 4169 2195 4045 
Q 1934 3922 1679 3669 
Q 1425 3416 1258 3105 
Q 1091 2794 978 2366 
Q 1428 2675 1881 2675 
Q 2316 2675 2634 2325 
Q 2953 1975 2953 1425 
Q 2953 894 2631 456 
Q 2244 -75 1606 -75 
Q 1172 -75 869 213 
Q 275 772 275 1663 
Q 275 2231 503 2743 
Q 731 3256 1154 3653 
Q 1578 4050 1965 4187 
Q 2353 4325 2688 4325 
L 2869 4325 
z
M 925 2138 
Q 869 1716 869 1456 
Q 869 1156 980 804 
Q 1091 453 1309 247 
Q 1469 100 1697 100 
Q 1969 100 2183 356 
Q 2397 613 2397 1088 
Q 2397 1622 2184 2012 
Q 1972 2403 1581 2403 
Q 1463 2403 1327 2353 
Q 1191 2303 925 2138 
z
" transform="scale(0.015625)"/>
       </defs>
       <use xlink:href="#TimesNewRomanPSMT-36"/>
      </g>
     </g>
    </g>
    <g id="xtick_5">
     <g id="line2d_5">
      <g>
       <use xlink:href="#ma9fccb0748" x="96.407614" y="107.660304" style="stroke: #000000; stroke-width: 0.6"/>
      </g>
     </g>
     <g id="text_5">
      <!-- 8 -->
      <g transform="translate(94.657614 119.520929) scale(0.07 -0.07)">
       <defs>
        <path id="TimesNewRomanPSMT-38" d="M 1228 2134 
Q 725 2547 579 2797 
Q 434 3047 434 3316 
Q 434 3728 753 4026 
Q 1072 4325 1600 4325 
Q 2113 4325 2425 4047 
Q 2738 3769 2738 3413 
Q 2738 3175 2569 2928 
Q 2400 2681 1866 2347 
Q 2416 1922 2594 1678 
Q 2831 1359 2831 1006 
Q 2831 559 2490 242 
Q 2150 -75 1597 -75 
Q 994 -75 656 303 
Q 388 606 388 966 
Q 388 1247 577 1523 
Q 766 1800 1228 2134 
z
M 1719 2469 
Q 2094 2806 2194 3001 
Q 2294 3197 2294 3444 
Q 2294 3772 2109 3958 
Q 1925 4144 1606 4144 
Q 1288 4144 1088 3959 
Q 888 3775 888 3528 
Q 888 3366 970 3203 
Q 1053 3041 1206 2894 
L 1719 2469 
z
M 1375 2016 
Q 1116 1797 991 1539 
Q 866 1281 866 981 
Q 866 578 1086 336 
Q 1306 94 1647 94 
Q 1984 94 2187 284 
Q 2391 475 2391 747 
Q 2391 972 2272 1150 
Q 2050 1481 1375 2016 
z
" transform="scale(0.015625)"/>
       </defs>
       <use xlink:href="#TimesNewRomanPSMT-38"/>
      </g>
     </g>
    </g>
    <g id="xtick_6">
     <g id="line2d_6">
      <g>
       <use xlink:href="#ma9fccb0748" x="111.076705" y="107.660304" style="stroke: #000000; stroke-width: 0.6"/>
      </g>
     </g>
     <g id="text_6">
      <!-- 10 -->
      <g transform="translate(107.576705 119.520929) scale(0.07 -0.07)">
       <defs>
        <path id="TimesNewRomanPSMT-31" d="M 750 3822 
L 1781 4325 
L 1884 4325 
L 1884 747 
Q 1884 391 1914 303 
Q 1944 216 2037 169 
Q 2131 122 2419 116 
L 2419 0 
L 825 0 
L 825 116 
Q 1125 122 1212 167 
Q 1300 213 1334 289 
Q 1369 366 1369 747 
L 1369 3034 
Q 1369 3497 1338 3628 
Q 1316 3728 1258 3775 
Q 1200 3822 1119 3822 
Q 1003 3822 797 3725 
L 750 3822 
z
" transform="scale(0.015625)"/>
       </defs>
       <use xlink:href="#TimesNewRomanPSMT-31"/>
       <use xlink:href="#TimesNewRomanPSMT-30" transform="translate(50 0)"/>
      </g>
     </g>
    </g>
    <g id="text_7">
     <!-- Layer -->
     <g transform="translate(68.745 130.558273) scale(0.08 -0.08)">
      <defs>
       <path id="TimesNewRomanPSMT-4c" d="M 3669 1172 
L 3772 1150 
L 3409 0 
L 128 0 
L 128 116 
L 288 116 
Q 556 116 672 291 
Q 738 391 738 753 
L 738 3488 
Q 738 3884 650 3984 
Q 528 4122 288 4122 
L 128 4122 
L 128 4238 
L 2047 4238 
L 2047 4122 
Q 1709 4125 1573 4059 
Q 1438 3994 1388 3894 
Q 1338 3794 1338 3416 
L 1338 753 
Q 1338 494 1388 397 
Q 1425 331 1503 300 
Q 1581 269 1991 269 
L 2300 269 
Q 2788 269 2984 341 
Q 3181 413 3343 595 
Q 3506 778 3669 1172 
z
" transform="scale(0.015625)"/>
       <path id="TimesNewRomanPSMT-61" d="M 1822 413 
Q 1381 72 1269 19 
Q 1100 -59 909 -59 
Q 613 -59 420 144 
Q 228 347 228 678 
Q 228 888 322 1041 
Q 450 1253 767 1440 
Q 1084 1628 1822 1897 
L 1822 2009 
Q 1822 2438 1686 2597 
Q 1550 2756 1291 2756 
Q 1094 2756 978 2650 
Q 859 2544 859 2406 
L 866 2225 
Q 866 2081 792 2003 
Q 719 1925 600 1925 
Q 484 1925 411 2006 
Q 338 2088 338 2228 
Q 338 2497 613 2722 
Q 888 2947 1384 2947 
Q 1766 2947 2009 2819 
Q 2194 2722 2281 2516 
Q 2338 2381 2338 1966 
L 2338 994 
Q 2338 584 2353 492 
Q 2369 400 2405 369 
Q 2441 338 2488 338 
Q 2538 338 2575 359 
Q 2641 400 2828 588 
L 2828 413 
Q 2478 -56 2159 -56 
Q 2006 -56 1915 50 
Q 1825 156 1822 413 
z
M 1822 616 
L 1822 1706 
Q 1350 1519 1213 1441 
Q 966 1303 859 1153 
Q 753 1003 753 825 
Q 753 600 887 451 
Q 1022 303 1197 303 
Q 1434 303 1822 616 
z
" transform="scale(0.015625)"/>
       <path id="TimesNewRomanPSMT-79" d="M 38 2863 
L 1372 2863 
L 1372 2747 
L 1306 2747 
Q 1166 2747 1095 2686 
Q 1025 2625 1025 2534 
Q 1025 2413 1128 2197 
L 1825 753 
L 2466 2334 
Q 2519 2463 2519 2588 
Q 2519 2644 2497 2672 
Q 2472 2706 2419 2726 
Q 2366 2747 2231 2747 
L 2231 2863 
L 3163 2863 
L 3163 2747 
Q 3047 2734 2984 2696 
Q 2922 2659 2847 2556 
Q 2819 2513 2741 2316 
L 1575 -541 
Q 1406 -956 1132 -1168 
Q 859 -1381 606 -1381 
Q 422 -1381 303 -1275 
Q 184 -1169 184 -1031 
Q 184 -900 270 -820 
Q 356 -741 506 -741 
Q 609 -741 788 -809 
Q 913 -856 944 -856 
Q 1038 -856 1148 -759 
Q 1259 -663 1372 -384 
L 1575 113 
L 547 2272 
Q 500 2369 397 2513 
Q 319 2622 269 2659 
Q 197 2709 38 2747 
L 38 2863 
z
" transform="scale(0.015625)"/>
       <path id="TimesNewRomanPSMT-65" d="M 681 1784 
Q 678 1147 991 784 
Q 1303 422 1725 422 
Q 2006 422 2214 576 
Q 2422 731 2563 1106 
L 2659 1044 
Q 2594 616 2278 264 
Q 1963 -88 1488 -88 
Q 972 -88 605 314 
Q 238 716 238 1394 
Q 238 2128 614 2539 
Q 991 2950 1559 2950 
Q 2041 2950 2350 2633 
Q 2659 2316 2659 1784 
L 681 1784 
z
M 681 1966 
L 2006 1966 
Q 1991 2241 1941 2353 
Q 1863 2528 1708 2628 
Q 1553 2728 1384 2728 
Q 1125 2728 920 2526 
Q 716 2325 681 1966 
z
" transform="scale(0.015625)"/>
       <path id="TimesNewRomanPSMT-72" d="M 1038 2947 
L 1038 2303 
Q 1397 2947 1775 2947 
Q 1947 2947 2059 2842 
Q 2172 2738 2172 2600 
Q 2172 2478 2090 2393 
Q 2009 2309 1897 2309 
Q 1788 2309 1652 2417 
Q 1516 2525 1450 2525 
Q 1394 2525 1328 2463 
Q 1188 2334 1038 2041 
L 1038 669 
Q 1038 431 1097 309 
Q 1138 225 1241 169 
Q 1344 113 1538 113 
L 1538 0 
L 72 0 
L 72 113 
Q 291 113 397 181 
Q 475 231 506 341 
Q 522 394 522 644 
L 522 1753 
Q 522 2253 501 2348 
Q 481 2444 426 2487 
Q 372 2531 291 2531 
Q 194 2531 72 2484 
L 41 2597 
L 906 2947 
L 1038 2947 
z
" transform="scale(0.015625)"/>
      </defs>
      <use xlink:href="#TimesNewRomanPSMT-4c"/>
      <use xlink:href="#TimesNewRomanPSMT-61" transform="translate(61.083984 0)"/>
      <use xlink:href="#TimesNewRomanPSMT-79" transform="translate(105.46875 0)"/>
      <use xlink:href="#TimesNewRomanPSMT-65" transform="translate(155.46875 0)"/>
      <use xlink:href="#TimesNewRomanPSMT-72" transform="translate(199.853516 0)"/>
     </g>
    </g>
   </g>
   <g id="matplotlib.axis_2">
    <g id="ytick_1">
     <g id="line2d_7">
      <defs>
       <path id="mb7dd669dff" d="M 0 0 
L -3.5 0 
" style="stroke: #000000; stroke-width: 0.6"/>
      </defs>
      <g>
       <use xlink:href="#mb7dd669dff" x="37.73125" y="103.616013" style="stroke: #000000; stroke-width: 0.6"/>
      </g>
     </g>
     <g id="text_8">
      <!-- 0.00 -->
      <g transform="translate(18.48125 106.046326) scale(0.07 -0.07)">
       <defs>
        <path id="TimesNewRomanPSMT-2e" d="M 800 606 
Q 947 606 1047 504 
Q 1147 403 1147 259 
Q 1147 116 1045 14 
Q 944 -88 800 -88 
Q 656 -88 554 14 
Q 453 116 453 259 
Q 453 406 554 506 
Q 656 606 800 606 
z
" transform="scale(0.015625)"/>
       </defs>
       <use xlink:href="#TimesNewRomanPSMT-30"/>
       <use xlink:href="#TimesNewRomanPSMT-2e" transform="translate(50 0)"/>
       <use xlink:href="#TimesNewRomanPSMT-30" transform="translate(75 0)"/>
       <use xlink:href="#TimesNewRomanPSMT-30" transform="translate(125 0)"/>
      </g>
     </g>
    </g>
    <g id="ytick_2">
     <g id="line2d_8">
      <g>
       <use xlink:href="#mb7dd669dff" x="37.73125" y="86.740874" style="stroke: #000000; stroke-width: 0.6"/>
      </g>
     </g>
     <g id="text_9">
      <!-- 0.05 -->
      <g transform="translate(18.48125 89.171187) scale(0.07 -0.07)">
       <defs>
        <path id="TimesNewRomanPSMT-35" d="M 2778 4238 
L 2534 3706 
L 1259 3706 
L 981 3138 
Q 1809 3016 2294 2522 
Q 2709 2097 2709 1522 
Q 2709 1188 2573 903 
Q 2438 619 2231 419 
Q 2025 219 1772 97 
Q 1413 -75 1034 -75 
Q 653 -75 479 54 
Q 306 184 306 341 
Q 306 428 378 495 
Q 450 563 559 563 
Q 641 563 702 538 
Q 763 513 909 409 
Q 1144 247 1384 247 
Q 1750 247 2026 523 
Q 2303 800 2303 1197 
Q 2303 1581 2056 1914 
Q 1809 2247 1375 2428 
Q 1034 2569 447 2591 
L 1259 4238 
L 2778 4238 
z
" transform="scale(0.015625)"/>
       </defs>
       <use xlink:href="#TimesNewRomanPSMT-30"/>
       <use xlink:href="#TimesNewRomanPSMT-2e" transform="translate(50 0)"/>
       <use xlink:href="#TimesNewRomanPSMT-30" transform="translate(75 0)"/>
       <use xlink:href="#TimesNewRomanPSMT-35" transform="translate(125 0)"/>
      </g>
     </g>
    </g>
    <g id="ytick_3">
     <g id="line2d_9">
      <g>
       <use xlink:href="#mb7dd669dff" x="37.73125" y="69.865735" style="stroke: #000000; stroke-width: 0.6"/>
      </g>
     </g>
     <g id="text_10">
      <!-- 0.10 -->
      <g transform="translate(18.48125 72.296048) scale(0.07 -0.07)">
       <use xlink:href="#TimesNewRomanPSMT-30"/>
       <use xlink:href="#TimesNewRomanPSMT-2e" transform="translate(50 0)"/>
       <use xlink:href="#TimesNewRomanPSMT-31" transform="translate(75 0)"/>
       <use xlink:href="#TimesNewRomanPSMT-30" transform="translate(125 0)"/>
      </g>
     </g>
    </g>
    <g id="ytick_4">
     <g id="line2d_10">
      <g>
       <use xlink:href="#mb7dd669dff" x="37.73125" y="52.990596" style="stroke: #000000; stroke-width: 0.6"/>
      </g>
     </g>
     <g id="text_11">
      <!-- 0.15 -->
      <g transform="translate(18.48125 55.420909) scale(0.07 -0.07)">
       <use xlink:href="#TimesNewRomanPSMT-30"/>
       <use xlink:href="#TimesNewRomanPSMT-2e" transform="translate(50 0)"/>
       <use xlink:href="#TimesNewRomanPSMT-31" transform="translate(75 0)"/>
       <use xlink:href="#TimesNewRomanPSMT-35" transform="translate(125 0)"/>
      </g>
     </g>
    </g>
    <g id="ytick_5">
     <g id="line2d_11">
      <g>
       <use xlink:href="#mb7dd669dff" x="37.73125" y="36.115457" style="stroke: #000000; stroke-width: 0.6"/>
      </g>
     </g>
     <g id="text_12">
      <!-- 0.20 -->
      <g transform="translate(18.48125 38.54577) scale(0.07 -0.07)">
       <use xlink:href="#TimesNewRomanPSMT-30"/>
       <use xlink:href="#TimesNewRomanPSMT-2e" transform="translate(50 0)"/>
       <use xlink:href="#TimesNewRomanPSMT-32" transform="translate(75 0)"/>
       <use xlink:href="#TimesNewRomanPSMT-30" transform="translate(125 0)"/>
      </g>
     </g>
    </g>
    <g id="ytick_6">
     <g id="line2d_12">
      <g>
       <use xlink:href="#mb7dd669dff" x="37.73125" y="19.240318" style="stroke: #000000; stroke-width: 0.6"/>
      </g>
     </g>
     <g id="text_13">
      <!-- 0.25 -->
      <g transform="translate(18.48125 21.670631) scale(0.07 -0.07)">
       <use xlink:href="#TimesNewRomanPSMT-30"/>
       <use xlink:href="#TimesNewRomanPSMT-2e" transform="translate(50 0)"/>
       <use xlink:href="#TimesNewRomanPSMT-32" transform="translate(75 0)"/>
       <use xlink:href="#TimesNewRomanPSMT-35" transform="translate(125 0)"/>
      </g>
     </g>
    </g>
    <g id="text_14">
     <!-- JS divergence -->
     <g transform="translate(12.755 85.429979) rotate(-90) scale(0.08 -0.08)">
      <defs>
       <path id="TimesNewRomanPSMT-4a" d="M 638 4122 
L 638 4238 
L 2453 4238 
L 2453 4122 
L 2300 4122 
Q 2041 4122 1922 3969 
Q 1847 3869 1847 3488 
L 1847 1416 
Q 1847 938 1742 641 
Q 1638 344 1381 123 
Q 1125 -97 763 -97 
Q 469 -97 300 48 
Q 131 194 131 381 
Q 131 534 209 613 
Q 313 709 450 709 
Q 550 709 629 643 
Q 709 578 831 294 
Q 903 125 1016 125 
Q 1100 125 1173 228 
Q 1247 331 1247 594 
L 1247 3488 
Q 1247 3809 1206 3913 
Q 1175 3991 1075 4047 
Q 941 4122 791 4122 
L 638 4122 
z
" transform="scale(0.015625)"/>
       <path id="TimesNewRomanPSMT-53" d="M 2934 4334 
L 2934 2869 
L 2819 2869 
Q 2763 3291 2617 3541 
Q 2472 3791 2203 3937 
Q 1934 4084 1647 4084 
Q 1322 4084 1109 3886 
Q 897 3688 897 3434 
Q 897 3241 1031 3081 
Q 1225 2847 1953 2456 
Q 2547 2138 2764 1967 
Q 2981 1797 3098 1565 
Q 3216 1334 3216 1081 
Q 3216 600 2842 251 
Q 2469 -97 1881 -97 
Q 1697 -97 1534 -69 
Q 1438 -53 1133 45 
Q 828 144 747 144 
Q 669 144 623 97 
Q 578 50 556 -97 
L 441 -97 
L 441 1356 
L 556 1356 
Q 638 900 775 673 
Q 913 447 1195 297 
Q 1478 147 1816 147 
Q 2206 147 2432 353 
Q 2659 559 2659 841 
Q 2659 997 2573 1156 
Q 2488 1316 2306 1453 
Q 2184 1547 1640 1851 
Q 1097 2156 867 2337 
Q 638 2519 519 2737 
Q 400 2956 400 3219 
Q 400 3675 750 4004 
Q 1100 4334 1641 4334 
Q 1978 4334 2356 4169 
Q 2531 4091 2603 4091 
Q 2684 4091 2736 4139 
Q 2788 4188 2819 4334 
L 2934 4334 
z
" transform="scale(0.015625)"/>
       <path id="TimesNewRomanPSMT-20" transform="scale(0.015625)"/>
       <path id="TimesNewRomanPSMT-64" d="M 2222 322 
Q 2013 103 1813 7 
Q 1613 -88 1381 -88 
Q 913 -88 563 304 
Q 213 697 213 1313 
Q 213 1928 600 2439 
Q 988 2950 1597 2950 
Q 1975 2950 2222 2709 
L 2222 3238 
Q 2222 3728 2198 3840 
Q 2175 3953 2125 3993 
Q 2075 4034 2000 4034 
Q 1919 4034 1784 3984 
L 1744 4094 
L 2597 4444 
L 2738 4444 
L 2738 1134 
Q 2738 631 2761 520 
Q 2784 409 2836 365 
Q 2888 322 2956 322 
Q 3041 322 3181 375 
L 3216 266 
L 2366 -88 
L 2222 -88 
L 2222 322 
z
M 2222 541 
L 2222 2016 
Q 2203 2228 2109 2403 
Q 2016 2578 1861 2667 
Q 1706 2756 1559 2756 
Q 1284 2756 1069 2509 
Q 784 2184 784 1559 
Q 784 928 1059 592 
Q 1334 256 1672 256 
Q 1956 256 2222 541 
z
" transform="scale(0.015625)"/>
       <path id="TimesNewRomanPSMT-69" d="M 928 4444 
Q 1059 4444 1151 4351 
Q 1244 4259 1244 4128 
Q 1244 3997 1151 3903 
Q 1059 3809 928 3809 
Q 797 3809 703 3903 
Q 609 3997 609 4128 
Q 609 4259 701 4351 
Q 794 4444 928 4444 
z
M 1188 2947 
L 1188 647 
Q 1188 378 1227 289 
Q 1266 200 1342 156 
Q 1419 113 1622 113 
L 1622 0 
L 231 0 
L 231 113 
Q 441 113 512 153 
Q 584 194 626 287 
Q 669 381 669 647 
L 669 1750 
Q 669 2216 641 2353 
Q 619 2453 572 2492 
Q 525 2531 444 2531 
Q 356 2531 231 2484 
L 188 2597 
L 1050 2947 
L 1188 2947 
z
" transform="scale(0.015625)"/>
       <path id="TimesNewRomanPSMT-76" d="M 53 2863 
L 1400 2863 
L 1400 2747 
L 1313 2747 
Q 1191 2747 1127 2687 
Q 1063 2628 1063 2528 
Q 1063 2419 1128 2269 
L 1794 688 
L 2463 2328 
Q 2534 2503 2534 2594 
Q 2534 2638 2509 2666 
Q 2475 2713 2422 2730 
Q 2369 2747 2206 2747 
L 2206 2863 
L 3141 2863 
L 3141 2747 
Q 2978 2734 2916 2681 
Q 2806 2588 2719 2369 
L 1703 -88 
L 1575 -88 
L 553 2328 
Q 484 2497 421 2570 
Q 359 2644 263 2694 
Q 209 2722 53 2747 
L 53 2863 
z
" transform="scale(0.015625)"/>
       <path id="TimesNewRomanPSMT-67" d="M 966 1044 
Q 703 1172 562 1401 
Q 422 1631 422 1909 
Q 422 2334 742 2640 
Q 1063 2947 1563 2947 
Q 1972 2947 2272 2747 
L 2878 2747 
Q 3013 2747 3034 2739 
Q 3056 2731 3066 2713 
Q 3084 2684 3084 2613 
Q 3084 2531 3069 2500 
Q 3059 2484 3036 2475 
Q 3013 2466 2878 2466 
L 2506 2466 
Q 2681 2241 2681 1891 
Q 2681 1491 2375 1206 
Q 2069 922 1553 922 
Q 1341 922 1119 984 
Q 981 866 932 777 
Q 884 688 884 625 
Q 884 572 936 522 
Q 988 472 1138 450 
Q 1225 438 1575 428 
Q 2219 413 2409 384 
Q 2700 344 2873 169 
Q 3047 -6 3047 -263 
Q 3047 -616 2716 -925 
Q 2228 -1381 1444 -1381 
Q 841 -1381 425 -1109 
Q 191 -953 191 -784 
Q 191 -709 225 -634 
Q 278 -519 444 -313 
Q 466 -284 763 25 
Q 600 122 533 198 
Q 466 275 466 372 
Q 466 481 555 628 
Q 644 775 966 1044 
z
M 1509 2797 
Q 1278 2797 1122 2612 
Q 966 2428 966 2047 
Q 966 1553 1178 1281 
Q 1341 1075 1591 1075 
Q 1828 1075 1981 1253 
Q 2134 1431 2134 1813 
Q 2134 2309 1919 2591 
Q 1759 2797 1509 2797 
z
M 934 0 
Q 788 -159 713 -296 
Q 638 -434 638 -550 
Q 638 -700 819 -813 
Q 1131 -1006 1722 -1006 
Q 2284 -1006 2551 -807 
Q 2819 -609 2819 -384 
Q 2819 -222 2659 -153 
Q 2497 -84 2016 -72 
Q 1313 -53 934 0 
z
" transform="scale(0.015625)"/>
       <path id="TimesNewRomanPSMT-6e" d="M 1034 2341 
Q 1538 2947 1994 2947 
Q 2228 2947 2397 2830 
Q 2566 2713 2666 2444 
Q 2734 2256 2734 1869 
L 2734 647 
Q 2734 375 2778 278 
Q 2813 200 2889 156 
Q 2966 113 3172 113 
L 3172 0 
L 1756 0 
L 1756 113 
L 1816 113 
Q 2016 113 2095 173 
Q 2175 234 2206 353 
Q 2219 400 2219 647 
L 2219 1819 
Q 2219 2209 2117 2386 
Q 2016 2563 1775 2563 
Q 1403 2563 1034 2156 
L 1034 647 
Q 1034 356 1069 288 
Q 1113 197 1189 155 
Q 1266 113 1500 113 
L 1500 0 
L 84 0 
L 84 113 
L 147 113 
Q 366 113 442 223 
Q 519 334 519 647 
L 519 1709 
Q 519 2225 495 2337 
Q 472 2450 423 2490 
Q 375 2531 294 2531 
Q 206 2531 84 2484 
L 38 2597 
L 900 2947 
L 1034 2947 
L 1034 2341 
z
" transform="scale(0.015625)"/>
       <path id="TimesNewRomanPSMT-63" d="M 2631 1088 
Q 2516 522 2178 217 
Q 1841 -88 1431 -88 
Q 944 -88 581 321 
Q 219 731 219 1428 
Q 219 2103 620 2525 
Q 1022 2947 1584 2947 
Q 2006 2947 2278 2723 
Q 2550 2500 2550 2259 
Q 2550 2141 2473 2067 
Q 2397 1994 2259 1994 
Q 2075 1994 1981 2113 
Q 1928 2178 1911 2362 
Q 1894 2547 1784 2644 
Q 1675 2738 1481 2738 
Q 1169 2738 978 2506 
Q 725 2200 725 1697 
Q 725 1184 976 792 
Q 1228 400 1656 400 
Q 1963 400 2206 609 
Q 2378 753 2541 1131 
L 2631 1088 
z
" transform="scale(0.015625)"/>
      </defs>
      <use xlink:href="#TimesNewRomanPSMT-4a"/>
      <use xlink:href="#TimesNewRomanPSMT-53" transform="translate(38.916016 0)"/>
      <use xlink:href="#TimesNewRomanPSMT-20" transform="translate(94.53125 0)"/>
      <use xlink:href="#TimesNewRomanPSMT-64" transform="translate(119.53125 0)"/>
      <use xlink:href="#TimesNewRomanPSMT-69" transform="translate(169.53125 0)"/>
      <use xlink:href="#TimesNewRomanPSMT-76" transform="translate(197.314453 0)"/>
      <use xlink:href="#TimesNewRomanPSMT-65" transform="translate(247.314453 0)"/>
      <use xlink:href="#TimesNewRomanPSMT-72" transform="translate(291.699219 0)"/>
      <use xlink:href="#TimesNewRomanPSMT-67" transform="translate(323.25 0)"/>
      <use xlink:href="#TimesNewRomanPSMT-65" transform="translate(373.25 0)"/>
      <use xlink:href="#TimesNewRomanPSMT-6e" transform="translate(417.634766 0)"/>
      <use xlink:href="#TimesNewRomanPSMT-63" transform="translate(467.634766 0)"/>
      <use xlink:href="#TimesNewRomanPSMT-65" transform="translate(512.019531 0)"/>
     </g>
    </g>
   </g>
   <g id="line2d_13">
    <path d="M 37.73125 103.616013 
L 45.065795 75.613454 
L 52.400341 80.335554 
L 59.734886 92.568948 
L 67.069432 88.440317 
L 74.403977 92.906865 
L 81.738523 86.814462 
L 89.073068 80.566248 
L 96.407614 81.063932 
L 103.742159 64.215642 
L 111.076705 44.925749 
L 118.41125 55.027686 
" clip-path="url(#p9eee57a549)" style="fill: none; stroke: #ee6677; stroke-width: 1.4; stroke-linecap: square"/>
   </g>
   <g id="line2d_14">
    <path d="M 37.73125 103.616013 
L 45.065795 103.281393 
L 52.400341 103.058507 
L 59.734886 103.456739 
L 67.069432 103.367834 
L 74.403977 103.347665 
L 81.738523 103.328963 
L 89.073068 103.080118 
L 96.407614 102.7631 
L 103.742159 102.179556 
L 111.076705 102.323265 
L 118.41125 102.038945 
" clip-path="url(#p9eee57a549)" style="fill: none; stroke-dasharray: 4.44,1.92; stroke-dashoffset: 0; stroke: #ee6677; stroke-width: 1.2"/>
   </g>
   <g id="line2d_15">
    <path d="M 37.73125 103.616013 
L 45.065795 98.915374 
L 52.400341 91.30553 
L 59.734886 96.171505 
L 67.069432 92.127371 
L 74.403977 99.306304 
L 81.738523 99.199111 
L 89.073068 98.657797 
L 96.407614 99.745393 
L 103.742159 99.14121 
L 111.076705 100.020951 
L 118.41125 94.881441 
" clip-path="url(#p9eee57a549)" style="fill: none; stroke-dasharray: 1,1.65; stroke-dashoffset: 0; stroke: #ee6677"/>
   </g>
   <g id="line2d_16">
    <path d="M 37.73125 103.616013 
L 45.065795 70.874506 
L 52.400341 54.070613 
L 59.734886 46.396444 
L 67.069432 51.288899 
L 74.403977 47.090179 
L 81.738523 45.245569 
L 89.073068 31.525405 
L 96.407614 24.657294 
L 103.742159 31.011026 
L 111.076705 23.071871 
L 118.41125 43.777114 
" clip-path="url(#p9eee57a549)" style="fill: none; stroke: #228833; stroke-width: 1.4; stroke-linecap: square"/>
   </g>
   <g id="line2d_17">
    <path d="M 37.73125 103.616013 
L 45.065795 103.542724 
L 52.400341 103.338774 
L 59.734886 103.429364 
L 67.069432 103.412959 
L 74.403977 103.446621 
L 81.738523 103.415231 
L 89.073068 103.374176 
L 96.407614 103.446618 
L 103.742159 103.32766 
L 111.076705 103.284029 
L 118.41125 103.363773 
" clip-path="url(#p9eee57a549)" style="fill: none; stroke-dasharray: 4.44,1.92; stroke-dashoffset: 0; stroke: #228833; stroke-width: 1.2"/>
   </g>
   <g id="line2d_18">
    <path d="M 37.73125 103.616013 
L 45.065795 95.431302 
L 52.400341 97.129861 
L 59.734886 100.43355 
L 67.069432 99.557582 
L 74.403977 101.099998 
L 81.738523 102.030835 
L 89.073068 97.344643 
L 96.407614 99.707224 
L 103.742159 99.59836 
L 111.076705 99.843824 
L 118.41125 100.255544 
" clip-path="url(#p9eee57a549)" style="fill: none; stroke-dasharray: 1,1.65; stroke-dashoffset: 0; stroke: #228833"/>
   </g>
   <g id="line2d_19">
    <path d="M 37.73125 103.616013 
L 45.065795 84.753764 
L 52.400341 79.693205 
L 59.734886 82.808736 
L 67.069432 79.144173 
L 74.403977 84.090805 
L 81.738523 80.445389 
L 89.073068 79.836031 
L 96.407614 68.779539 
L 103.742159 46.920104 
L 111.076705 35.647279 
L 118.41125 25.387202 
" clip-path="url(#p9eee57a549)" style="fill: none; stroke: #f4a0a8; stroke-opacity: 0.5; stroke-width: 0.98; stroke-linecap: square"/>
   </g>
   <g id="line2d_20">
    <path d="M 37.73125 103.616013 
L 45.065795 103.21292 
L 52.400341 103.104934 
L 59.734886 103.260341 
L 67.069432 103.293167 
L 74.403977 103.262424 
L 81.738523 103.217242 
L 89.073068 102.966056 
L 96.407614 102.617047 
L 103.742159 102.217369 
L 111.076705 101.20016 
L 118.41125 100.657705 
" clip-path="url(#p9eee57a549)" style="fill: none; stroke-dasharray: 3.108,1.344; stroke-dashoffset: 0; stroke: #f4a0a8; stroke-opacity: 0.5; stroke-width: 0.84"/>
   </g>
   <g id="line2d_21">
    <path d="M 37.73125 103.616013 
L 45.065795 99.315717 
L 52.400341 97.156876 
L 59.734886 99.36687 
L 67.069432 97.694039 
L 74.403977 99.203957 
L 81.738523 99.525374 
L 89.073068 99.258223 
L 96.407614 98.671153 
L 103.742159 99.381332 
L 111.076705 98.624621 
L 118.41125 98.697192 
" clip-path="url(#p9eee57a549)" style="fill: none; stroke-dasharray: 0.7,1.155; stroke-dashoffset: 0; stroke: #f4a0a8; stroke-opacity: 0.5; stroke-width: 0.7"/>
   </g>
   <g id="line2d_22">
    <path d="M 37.73125 103.616013 
L 45.065795 70.458699 
L 52.400341 81.673342 
L 59.734886 76.806739 
L 67.069432 71.925313 
L 74.403977 65.687324 
L 81.738523 56.389123 
L 89.073068 58.106978 
L 96.407614 34.288587 
L 103.742159 27.802324 
L 111.076705 24.254557 
L 118.41125 41.858492 
" clip-path="url(#p9eee57a549)" style="fill: none; stroke: #80c48a; stroke-opacity: 0.5; stroke-width: 0.98; stroke-linecap: square"/>
   </g>
   <g id="line2d_23">
    <path d="M 37.73125 103.616013 
L 45.065795 103.430224 
L 52.400341 103.207725 
L 59.734886 103.494325 
L 67.069432 103.531203 
L 74.403977 103.506621 
L 81.738523 103.454669 
L 89.073068 103.35953 
L 96.407614 103.260073 
L 103.742159 103.065038 
L 111.076705 102.8868 
L 118.41125 102.999973 
" clip-path="url(#p9eee57a549)" style="fill: none; stroke-dasharray: 3.108,1.344; stroke-dashoffset: 0; stroke: #80c48a; stroke-opacity: 0.5; stroke-width: 0.84"/>
   </g>
   <g id="line2d_24">
    <path d="M 37.73125 103.616013 
L 45.065795 100.356994 
L 52.400341 98.76805 
L 59.734886 97.229418 
L 67.069432 99.128767 
L 74.403977 98.884353 
L 81.738523 98.492399 
L 89.073068 97.097042 
L 96.407614 98.044932 
L 103.742159 97.341033 
L 111.076705 96.567876 
L 118.41125 95.764505 
" clip-path="url(#p9eee57a549)" style="fill: none; stroke-dasharray: 0.7,1.155; stroke-dashoffset: 0; stroke: #80c48a; stroke-opacity: 0.5; stroke-width: 0.7"/>
   </g>
   <g id="patch_3">
    <path d="M 37.73125 107.660304 
L 37.73125 18.685904 
" style="fill: none; stroke: #000000; stroke-width: 0.6; stroke-linejoin: miter; stroke-linecap: square"/>
   </g>
   <g id="patch_4">
    <path d="M 37.73125 107.660304 
L 118.41125 107.660304 
" style="fill: none; stroke: #000000; stroke-width: 0.6; stroke-linejoin: miter; stroke-linecap: square"/>
   </g>
   <g id="text_15">
    <!-- (a) -->
    <g transform="translate(13.52725 13.979913) scale(0.09 -0.09)">
     <defs>
      <path id="TimesNewRomanPS-BoldMT-28" d="M 2056 4334 
L 2056 4191 
Q 1731 3978 1578 3775 
Q 1366 3494 1247 3053 
Q 1097 2506 1097 1525 
Q 1097 600 1233 87 
Q 1369 -425 1603 -741 
Q 1766 -959 2056 -1125 
L 2056 -1281 
Q 1303 -1028 779 -248 
Q 256 531 256 1544 
Q 256 2544 778 3314 
Q 1300 4084 2056 4334 
z
" transform="scale(0.015625)"/>
      <path id="TimesNewRomanPS-BoldMT-61" d="M 1828 431 
Q 1294 -41 869 -41 
Q 619 -41 453 123 
Q 288 288 288 534 
Q 288 869 575 1136 
Q 863 1403 1828 1847 
L 1828 2141 
Q 1828 2472 1792 2558 
Q 1756 2644 1656 2708 
Q 1556 2772 1431 2772 
Q 1228 2772 1097 2681 
Q 1016 2625 1016 2550 
Q 1016 2484 1103 2388 
Q 1222 2253 1222 2128 
Q 1222 1975 1108 1867 
Q 994 1759 809 1759 
Q 613 1759 480 1878 
Q 347 1997 347 2156 
Q 347 2381 525 2586 
Q 703 2791 1022 2900 
Q 1341 3009 1684 3009 
Q 2100 3009 2342 2832 
Q 2584 2656 2656 2450 
Q 2700 2319 2700 1847 
L 2700 713 
Q 2700 513 2715 461 
Q 2731 409 2762 384 
Q 2794 359 2834 359 
Q 2916 359 3000 475 
L 3094 400 
Q 2938 169 2770 64 
Q 2603 -41 2391 -41 
Q 2141 -41 2000 76 
Q 1859 194 1828 431 
z
M 1828 659 
L 1828 1638 
Q 1450 1416 1266 1163 
Q 1144 994 1144 822 
Q 1144 678 1247 569 
Q 1325 484 1466 484 
Q 1622 484 1828 659 
z
" transform="scale(0.015625)"/>
      <path id="TimesNewRomanPS-BoldMT-29" d="M 78 -1281 
L 78 -1138 
Q 403 -922 556 -719 
Q 766 -438 888 0 
Q 1038 550 1038 1531 
Q 1038 2456 902 2967 
Q 766 3478 531 3794 
Q 369 4013 78 4178 
L 78 4334 
Q 831 4081 1354 3301 
Q 1878 2522 1878 1509 
Q 1878 513 1354 -257 
Q 831 -1028 78 -1281 
z
" transform="scale(0.015625)"/>
     </defs>
     <use xlink:href="#TimesNewRomanPS-BoldMT-28"/>
     <use xlink:href="#TimesNewRomanPS-BoldMT-61" transform="translate(33.300781 0)"/>
     <use xlink:href="#TimesNewRomanPS-BoldMT-29" transform="translate(83.300781 0)"/>
    </g>
   </g>
   <g id="legend_1">
    <g id="line2d_25">
     <path d="M 41.06765 11.325 
L 44.36765 11.325 
L 47.66765 11.325 
" style="fill: none; stroke: #000000; stroke-width: 1.2; stroke-linecap: square"/>
    </g>
    <g id="text_16">
     <!-- Zero regs -->
     <g transform="translate(49.31765 13.25) scale(0.055 -0.055)">
      <defs>
       <path id="TimesNewRomanPSMT-5a" d="M 3681 4238 
L 897 256 
L 2634 256 
Q 3034 256 3248 431 
Q 3463 606 3628 1141 
L 3731 1122 
L 3531 0 
L 81 0 
L 81 116 
L 2800 3984 
L 1444 3984 
Q 1106 3984 954 3911 
Q 803 3838 723 3698 
Q 644 3559 578 3178 
L 459 3178 
L 547 4238 
L 3681 4238 
z
" transform="scale(0.015625)"/>
       <path id="TimesNewRomanPSMT-6f" d="M 1600 2947 
Q 2250 2947 2644 2453 
Q 2978 2031 2978 1484 
Q 2978 1100 2793 706 
Q 2609 313 2286 112 
Q 1963 -88 1566 -88 
Q 919 -88 538 428 
Q 216 863 216 1403 
Q 216 1797 411 2186 
Q 606 2575 925 2761 
Q 1244 2947 1600 2947 
z
M 1503 2744 
Q 1338 2744 1170 2645 
Q 1003 2547 900 2300 
Q 797 2053 797 1666 
Q 797 1041 1045 587 
Q 1294 134 1700 134 
Q 2003 134 2200 384 
Q 2397 634 2397 1244 
Q 2397 2006 2069 2444 
Q 1847 2744 1503 2744 
z
" transform="scale(0.015625)"/>
       <path id="TimesNewRomanPSMT-73" d="M 2050 2947 
L 2050 1972 
L 1947 1972 
Q 1828 2431 1642 2597 
Q 1456 2763 1169 2763 
Q 950 2763 815 2647 
Q 681 2531 681 2391 
Q 681 2216 781 2091 
Q 878 1963 1175 1819 
L 1631 1597 
Q 2266 1288 2266 781 
Q 2266 391 1970 151 
Q 1675 -88 1309 -88 
Q 1047 -88 709 6 
Q 606 38 541 38 
Q 469 38 428 -44 
L 325 -44 
L 325 978 
L 428 978 
Q 516 541 762 319 
Q 1009 97 1316 97 
Q 1531 97 1667 223 
Q 1803 350 1803 528 
Q 1803 744 1651 891 
Q 1500 1038 1047 1263 
Q 594 1488 453 1669 
Q 313 1847 313 2119 
Q 313 2472 555 2709 
Q 797 2947 1181 2947 
Q 1350 2947 1591 2875 
Q 1750 2828 1803 2828 
Q 1853 2828 1881 2850 
Q 1909 2872 1947 2947 
L 2050 2947 
z
" transform="scale(0.015625)"/>
      </defs>
      <use xlink:href="#TimesNewRomanPSMT-5a"/>
      <use xlink:href="#TimesNewRomanPSMT-65" transform="translate(61.083984 0)"/>
      <use xlink:href="#TimesNewRomanPSMT-72" transform="translate(105.46875 0)"/>
      <use xlink:href="#TimesNewRomanPSMT-6f" transform="translate(138.769531 0)"/>
      <use xlink:href="#TimesNewRomanPSMT-20" transform="translate(188.769531 0)"/>
      <use xlink:href="#TimesNewRomanPSMT-72" transform="translate(213.769531 0)"/>
      <use xlink:href="#TimesNewRomanPSMT-65" transform="translate(247.070312 0)"/>
      <use xlink:href="#TimesNewRomanPSMT-67" transform="translate(291.455078 0)"/>
      <use xlink:href="#TimesNewRomanPSMT-73" transform="translate(341.455078 0)"/>
     </g>
    </g>
    <g id="patch_5">
     <path d="M 41.06765 19.661797 
L 44.36765 19.661797 
L 44.36765 15.811797 
L 41.06765 15.811797 
z
" style="fill: #ee6677"/>
    </g>
    <g id="patch_6">
     <path d="M 44.36765 19.661797 
L 47.66765 19.661797 
L 47.66765 15.811797 
L 44.36765 15.811797 
z
" style="fill: #f4a0a8"/>
    </g>
    <g id="text_17">
     <!-- DINOv2+reg (S/B) -->
     <g transform="translate(49.31765 19.661797) scale(0.055 -0.055)">
      <defs>
       <path id="TimesNewRomanPSMT-44" d="M 109 0 
L 109 116 
L 269 116 
Q 538 116 650 288 
Q 719 391 719 750 
L 719 3488 
Q 719 3884 631 3984 
Q 509 4122 269 4122 
L 109 4122 
L 109 4238 
L 1834 4238 
Q 2784 4238 3279 4022 
Q 3775 3806 4076 3303 
Q 4378 2800 4378 2141 
Q 4378 1256 3841 663 
Q 3238 0 2003 0 
L 109 0 
z
M 1319 306 
Q 1716 219 1984 219 
Q 2709 219 3187 728 
Q 3666 1238 3666 2109 
Q 3666 2988 3187 3494 
Q 2709 4000 1959 4000 
Q 1678 4000 1319 3909 
L 1319 306 
z
" transform="scale(0.015625)"/>
       <path id="TimesNewRomanPSMT-49" d="M 1975 116 
L 1975 0 
L 159 0 
L 159 116 
L 309 116 
Q 572 116 691 269 
Q 766 369 766 750 
L 766 3488 
Q 766 3809 725 3913 
Q 694 3991 597 4047 
Q 459 4122 309 4122 
L 159 4122 
L 159 4238 
L 1975 4238 
L 1975 4122 
L 1822 4122 
Q 1563 4122 1444 3969 
Q 1366 3869 1366 3488 
L 1366 750 
Q 1366 428 1406 325 
Q 1438 247 1538 191 
Q 1672 116 1822 116 
L 1975 116 
z
" transform="scale(0.015625)"/>
       <path id="TimesNewRomanPSMT-4e" d="M -84 4238 
L 1066 4238 
L 3656 1059 
L 3656 3503 
Q 3656 3894 3569 3991 
Q 3453 4122 3203 4122 
L 3056 4122 
L 3056 4238 
L 4531 4238 
L 4531 4122 
L 4381 4122 
Q 4113 4122 4000 3959 
Q 3931 3859 3931 3503 
L 3931 -69 
L 3819 -69 
L 1025 3344 
L 1025 734 
Q 1025 344 1109 247 
Q 1228 116 1475 116 
L 1625 116 
L 1625 0 
L 150 0 
L 150 116 
L 297 116 
Q 569 116 681 278 
Q 750 378 750 734 
L 750 3681 
Q 566 3897 470 3965 
Q 375 4034 191 4094 
Q 100 4122 -84 4122 
L -84 4238 
z
" transform="scale(0.015625)"/>
       <path id="TimesNewRomanPSMT-4f" d="M 2341 4334 
Q 3166 4334 3770 3707 
Q 4375 3081 4375 2144 
Q 4375 1178 3765 540 
Q 3156 -97 2291 -97 
Q 1416 -97 820 525 
Q 225 1147 225 2134 
Q 225 3144 913 3781 
Q 1509 4334 2341 4334 
z
M 2281 4106 
Q 1713 4106 1369 3684 
Q 941 3159 941 2147 
Q 941 1109 1384 550 
Q 1725 125 2284 125 
Q 2881 125 3270 590 
Q 3659 1056 3659 2059 
Q 3659 3147 3231 3681 
Q 2888 4106 2281 4106 
z
" transform="scale(0.015625)"/>
       <path id="TimesNewRomanPSMT-2b" d="M 1672 441 
L 1672 2000 
L 116 2000 
L 116 2256 
L 1672 2256 
L 1672 3809 
L 1922 3809 
L 1922 2256 
L 3484 2256 
L 3484 2000 
L 1922 2000 
L 1922 441 
L 1672 441 
z
" transform="scale(0.015625)"/>
       <path id="TimesNewRomanPSMT-28" d="M 1988 -1253 
L 1988 -1369 
Q 1516 -1131 1200 -813 
Q 750 -359 506 256 
Q 263 872 263 1534 
Q 263 2503 741 3301 
Q 1219 4100 1988 4444 
L 1988 4313 
Q 1603 4100 1356 3731 
Q 1109 3363 987 2797 
Q 866 2231 866 1616 
Q 866 947 969 400 
Q 1050 -31 1165 -292 
Q 1281 -553 1476 -793 
Q 1672 -1034 1988 -1253 
z
" transform="scale(0.015625)"/>
       <path id="TimesNewRomanPSMT-2f" d="M 1794 4444 
L 259 -88 
L 9 -88 
L 1544 4444 
L 1794 4444 
z
" transform="scale(0.015625)"/>
       <path id="TimesNewRomanPSMT-42" d="M 2956 2163 
Q 3397 2069 3616 1863 
Q 3919 1575 3919 1159 
Q 3919 844 3719 555 
Q 3519 266 3170 133 
Q 2822 0 2106 0 
L 106 0 
L 106 116 
L 266 116 
Q 531 116 647 284 
Q 719 394 719 750 
L 719 3488 
Q 719 3881 628 3984 
Q 506 4122 266 4122 
L 106 4122 
L 106 4238 
L 1938 4238 
Q 2450 4238 2759 4163 
Q 3228 4050 3475 3764 
Q 3722 3478 3722 3106 
Q 3722 2788 3528 2536 
Q 3334 2284 2956 2163 
z
M 1319 2331 
Q 1434 2309 1582 2298 
Q 1731 2288 1909 2288 
Q 2366 2288 2595 2386 
Q 2825 2484 2947 2687 
Q 3069 2891 3069 3131 
Q 3069 3503 2766 3765 
Q 2463 4028 1881 4028 
Q 1569 4028 1319 3959 
L 1319 2331 
z
M 1319 306 
Q 1681 222 2034 222 
Q 2600 222 2897 476 
Q 3194 731 3194 1106 
Q 3194 1353 3059 1581 
Q 2925 1809 2622 1940 
Q 2319 2072 1872 2072 
Q 1678 2072 1540 2065 
Q 1403 2059 1319 2044 
L 1319 306 
z
" transform="scale(0.015625)"/>
       <path id="TimesNewRomanPSMT-29" d="M 144 4313 
L 144 4444 
Q 619 4209 934 3891 
Q 1381 3434 1625 2820 
Q 1869 2206 1869 1541 
Q 1869 572 1392 -226 
Q 916 -1025 144 -1369 
L 144 -1253 
Q 528 -1038 776 -670 
Q 1025 -303 1145 264 
Q 1266 831 1266 1447 
Q 1266 2113 1163 2663 
Q 1084 3094 967 3353 
Q 850 3613 656 3853 
Q 463 4094 144 4313 
z
" transform="scale(0.015625)"/>
      </defs>
      <use xlink:href="#TimesNewRomanPSMT-44"/>
      <use xlink:href="#TimesNewRomanPSMT-49" transform="translate(72.216797 0)"/>
      <use xlink:href="#TimesNewRomanPSMT-4e" transform="translate(105.517578 0)"/>
      <use xlink:href="#TimesNewRomanPSMT-4f" transform="translate(177.734375 0)"/>
      <use xlink:href="#TimesNewRomanPSMT-76" transform="translate(249.951172 0)"/>
      <use xlink:href="#TimesNewRomanPSMT-32" transform="translate(299.951172 0)"/>
      <use xlink:href="#TimesNewRomanPSMT-2b" transform="translate(349.951172 0)"/>
      <use xlink:href="#TimesNewRomanPSMT-72" transform="translate(406.347656 0)"/>
      <use xlink:href="#TimesNewRomanPSMT-65" transform="translate(439.648438 0)"/>
      <use xlink:href="#TimesNewRomanPSMT-67" transform="translate(484.033203 0)"/>
      <use xlink:href="#TimesNewRomanPSMT-20" transform="translate(534.033203 0)"/>
      <use xlink:href="#TimesNewRomanPSMT-28" transform="translate(559.033203 0)"/>
      <use xlink:href="#TimesNewRomanPSMT-53" transform="translate(592.333984 0)"/>
      <use xlink:href="#TimesNewRomanPSMT-2f" transform="translate(647.949219 0)"/>
      <use xlink:href="#TimesNewRomanPSMT-42" transform="translate(675.732422 0)"/>
      <use xlink:href="#TimesNewRomanPSMT-29" transform="translate(742.431641 0)"/>
     </g>
    </g>
    <g id="patch_7">
     <path d="M 41.06765 26.073594 
L 44.36765 26.073594 
L 44.36765 22.223594 
L 41.06765 22.223594 
z
" style="fill: #228833"/>
    </g>
    <g id="patch_8">
     <path d="M 44.36765 26.073594 
L 47.66765 26.073594 
L 47.66765 22.223594 
L 44.36765 22.223594 
z
" style="fill: #80c48a"/>
    </g>
    <g id="text_18">
     <!-- DINOv3 (S/B) -->
     <g transform="translate(49.31765 26.073594) scale(0.055 -0.055)">
      <defs>
       <path id="TimesNewRomanPSMT-33" d="M 325 3431 
Q 506 3859 782 4092 
Q 1059 4325 1472 4325 
Q 1981 4325 2253 3994 
Q 2459 3747 2459 3466 
Q 2459 3003 1878 2509 
Q 2269 2356 2469 2072 
Q 2669 1788 2669 1403 
Q 2669 853 2319 450 
Q 1863 -75 997 -75 
Q 569 -75 414 31 
Q 259 138 259 259 
Q 259 350 332 419 
Q 406 488 509 488 
Q 588 488 669 463 
Q 722 447 909 348 
Q 1097 250 1169 231 
Q 1284 197 1416 197 
Q 1734 197 1970 444 
Q 2206 691 2206 1028 
Q 2206 1275 2097 1509 
Q 2016 1684 1919 1775 
Q 1784 1900 1550 2001 
Q 1316 2103 1072 2103 
L 972 2103 
L 972 2197 
Q 1219 2228 1467 2375 
Q 1716 2522 1828 2728 
Q 1941 2934 1941 3181 
Q 1941 3503 1739 3701 
Q 1538 3900 1238 3900 
Q 753 3900 428 3381 
L 325 3431 
z
" transform="scale(0.015625)"/>
      </defs>
      <use xlink:href="#TimesNewRomanPSMT-44"/>
      <use xlink:href="#TimesNewRomanPSMT-49" transform="translate(72.216797 0)"/>
      <use xlink:href="#TimesNewRomanPSMT-4e" transform="translate(105.517578 0)"/>
      <use xlink:href="#TimesNewRomanPSMT-4f" transform="translate(177.734375 0)"/>
      <use xlink:href="#TimesNewRomanPSMT-76" transform="translate(249.951172 0)"/>
      <use xlink:href="#TimesNewRomanPSMT-33" transform="translate(299.951172 0)"/>
      <use xlink:href="#TimesNewRomanPSMT-20" transform="translate(349.951172 0)"/>
      <use xlink:href="#TimesNewRomanPSMT-28" transform="translate(374.951172 0)"/>
      <use xlink:href="#TimesNewRomanPSMT-53" transform="translate(408.251953 0)"/>
      <use xlink:href="#TimesNewRomanPSMT-2f" transform="translate(463.867188 0)"/>
      <use xlink:href="#TimesNewRomanPSMT-42" transform="translate(491.650391 0)"/>
      <use xlink:href="#TimesNewRomanPSMT-29" transform="translate(558.349609 0)"/>
     </g>
    </g>
    <g id="line2d_26">
     <path d="M 41.06765 30.550078 
L 44.36765 30.550078 
L 47.66765 30.550078 
" style="fill: none; stroke-dasharray: 3.7,1.6; stroke-dashoffset: 0; stroke: #000000"/>
    </g>
    <g id="text_19">
     <!-- Mean-sub regs -->
     <g transform="translate(49.31765 32.475078) scale(0.055 -0.055)">
      <defs>
       <path id="TimesNewRomanPSMT-4d" d="M 2619 0 
L 981 3566 
L 981 734 
Q 981 344 1066 247 
Q 1181 116 1431 116 
L 1581 116 
L 1581 0 
L 106 0 
L 106 116 
L 256 116 
Q 525 116 638 278 
Q 706 378 706 734 
L 706 3503 
Q 706 3784 644 3909 
Q 600 4000 483 4061 
Q 366 4122 106 4122 
L 106 4238 
L 1306 4238 
L 2844 922 
L 4356 4238 
L 5556 4238 
L 5556 4122 
L 5409 4122 
Q 5138 4122 5025 3959 
Q 4956 3859 4956 3503 
L 4956 734 
Q 4956 344 5044 247 
Q 5159 116 5409 116 
L 5556 116 
L 5556 0 
L 3756 0 
L 3756 116 
L 3906 116 
Q 4178 116 4288 278 
Q 4356 378 4356 734 
L 4356 3566 
L 2722 0 
L 2619 0 
z
" transform="scale(0.015625)"/>
       <path id="TimesNewRomanPSMT-2d" d="M 259 1672 
L 1875 1672 
L 1875 1200 
L 259 1200 
L 259 1672 
z
" transform="scale(0.015625)"/>
       <path id="TimesNewRomanPSMT-75" d="M 2709 2863 
L 2709 1128 
Q 2709 631 2732 520 
Q 2756 409 2807 365 
Q 2859 322 2928 322 
Q 3025 322 3147 375 
L 3191 266 
L 2334 -88 
L 2194 -88 
L 2194 519 
Q 1825 119 1631 15 
Q 1438 -88 1222 -88 
Q 981 -88 804 51 
Q 628 191 559 409 
Q 491 628 491 1028 
L 491 2306 
Q 491 2509 447 2587 
Q 403 2666 317 2708 
Q 231 2750 6 2747 
L 6 2863 
L 1009 2863 
L 1009 947 
Q 1009 547 1148 422 
Q 1288 297 1484 297 
Q 1619 297 1789 381 
Q 1959 466 2194 703 
L 2194 2325 
Q 2194 2569 2105 2655 
Q 2016 2741 1734 2747 
L 1734 2863 
L 2709 2863 
z
" transform="scale(0.015625)"/>
       <path id="TimesNewRomanPSMT-62" d="M 984 2369 
Q 1400 2947 1881 2947 
Q 2322 2947 2650 2570 
Q 2978 2194 2978 1541 
Q 2978 778 2472 313 
Q 2038 -88 1503 -88 
Q 1253 -88 995 3 
Q 738 94 469 275 
L 469 3241 
Q 469 3728 445 3840 
Q 422 3953 372 3993 
Q 322 4034 247 4034 
Q 159 4034 28 3984 
L -16 4094 
L 844 4444 
L 984 4444 
L 984 2369 
z
M 984 2169 
L 984 456 
Q 1144 300 1314 220 
Q 1484 141 1663 141 
Q 1947 141 2192 453 
Q 2438 766 2438 1363 
Q 2438 1913 2192 2208 
Q 1947 2503 1634 2503 
Q 1469 2503 1303 2419 
Q 1178 2356 984 2169 
z
" transform="scale(0.015625)"/>
      </defs>
      <use xlink:href="#TimesNewRomanPSMT-4d"/>
      <use xlink:href="#TimesNewRomanPSMT-65" transform="translate(88.916016 0)"/>
      <use xlink:href="#TimesNewRomanPSMT-61" transform="translate(133.300781 0)"/>
      <use xlink:href="#TimesNewRomanPSMT-6e" transform="translate(177.685547 0)"/>
      <use xlink:href="#TimesNewRomanPSMT-2d" transform="translate(227.685547 0)"/>
      <use xlink:href="#TimesNewRomanPSMT-73" transform="translate(260.986328 0)"/>
      <use xlink:href="#TimesNewRomanPSMT-75" transform="translate(299.902344 0)"/>
      <use xlink:href="#TimesNewRomanPSMT-62" transform="translate(349.902344 0)"/>
      <use xlink:href="#TimesNewRomanPSMT-20" transform="translate(399.902344 0)"/>
      <use xlink:href="#TimesNewRomanPSMT-72" transform="translate(424.902344 0)"/>
      <use xlink:href="#TimesNewRomanPSMT-65" transform="translate(458.203125 0)"/>
      <use xlink:href="#TimesNewRomanPSMT-67" transform="translate(502.587891 0)"/>
      <use xlink:href="#TimesNewRomanPSMT-73" transform="translate(552.587891 0)"/>
     </g>
    </g>
    <g id="line2d_27">
     <path d="M 41.06765 36.961875 
L 44.36765 36.961875 
L 47.66765 36.961875 
" style="fill: none; stroke-dasharray: 1,1.65; stroke-dashoffset: 0; stroke: #000000"/>
    </g>
    <g id="text_20">
     <!-- Zero CLS -->
     <g transform="translate(49.31765 38.886875) scale(0.055 -0.055)">
      <defs>
       <path id="TimesNewRomanPSMT-43" d="M 3853 4334 
L 3950 2894 
L 3853 2894 
Q 3659 3541 3300 3825 
Q 2941 4109 2438 4109 
Q 2016 4109 1675 3895 
Q 1334 3681 1139 3212 
Q 944 2744 944 2047 
Q 944 1472 1128 1050 
Q 1313 628 1683 403 
Q 2053 178 2528 178 
Q 2941 178 3256 354 
Q 3572 531 3950 1056 
L 4047 994 
Q 3728 428 3303 165 
Q 2878 -97 2294 -97 
Q 1241 -97 663 684 
Q 231 1266 231 2053 
Q 231 2688 515 3219 
Q 800 3750 1298 4042 
Q 1797 4334 2388 4334 
Q 2847 4334 3294 4109 
Q 3425 4041 3481 4041 
Q 3566 4041 3628 4100 
Q 3709 4184 3744 4334 
L 3853 4334 
z
" transform="scale(0.015625)"/>
      </defs>
      <use xlink:href="#TimesNewRomanPSMT-5a"/>
      <use xlink:href="#TimesNewRomanPSMT-65" transform="translate(61.083984 0)"/>
      <use xlink:href="#TimesNewRomanPSMT-72" transform="translate(105.46875 0)"/>
      <use xlink:href="#TimesNewRomanPSMT-6f" transform="translate(138.769531 0)"/>
      <use xlink:href="#TimesNewRomanPSMT-20" transform="translate(188.769531 0)"/>
      <use xlink:href="#TimesNewRomanPSMT-43" transform="translate(213.769531 0)"/>
      <use xlink:href="#TimesNewRomanPSMT-4c" transform="translate(280.46875 0)"/>
      <use xlink:href="#TimesNewRomanPSMT-53" transform="translate(341.552734 0)"/>
     </g>
    </g>
   </g>
  </g>
  <g id="axes_2">
   <g id="patch_9">
    <path d="M 154.13125 107.660304 
L 234.81125 107.660304 
L 234.81125 18.685904 
L 154.13125 18.685904 
z
" style="fill: #ffffff"/>
   </g>
   <g id="patch_10">
    <path d="M 157.798523 85.564336 
L 172.899057 85.564336 
L 172.899057 107.660304 
L 157.798523 107.660304 
z
" clip-path="url(#p36700e78e7)" style="fill: #ccbb44; opacity: 0.9"/>
   </g>
   <g id="patch_11">
    <path d="M 200.942908 85.564336 
L 216.043443 85.564336 
L 216.043443 24.705537 
L 200.942908 24.705537 
z
" clip-path="url(#p36700e78e7)" style="fill: #ccbb44; opacity: 0.9"/>
   </g>
   <g id="patch_12">
    <path d="M 157.798523 107.660304 
L 172.899057 107.660304 
L 172.899057 105.090839 
L 157.798523 105.090839 
z
" clip-path="url(#p36700e78e7)" style="fill: #bbbbbb; opacity: 0.9"/>
   </g>
   <g id="patch_13">
    <path d="M 200.942908 24.705537 
L 216.043443 24.705537 
L 216.043443 22.92278 
L 200.942908 22.92278 
z
" clip-path="url(#p36700e78e7)" style="fill: #bbbbbb; opacity: 0.9"/>
   </g>
   <g id="patch_14">
    <path d="M 172.899057 85.564336 
L 187.999592 85.564336 
L 187.999592 85.311976 
L 172.899057 85.311976 
z
" clip-path="url(#p36700e78e7)" style="fill: url(#h88a4dce2d5); opacity: 0.4"/>
   </g>
   <g id="patch_15">
    <path d="M 216.043443 85.564336 
L 231.143977 85.564336 
L 231.143977 84.441648 
L 216.043443 84.441648 
z
" clip-path="url(#p36700e78e7)" style="fill: url(#h88a4dce2d5); opacity: 0.4"/>
   </g>
   <g id="patch_16">
    <path d="M 172.899057 85.311976 
L 187.999592 85.311976 
L 187.999592 85.361909 
L 172.899057 85.361909 
z
" clip-path="url(#p36700e78e7)" style="fill: url(#hbc6e64e9b3); opacity: 0.4"/>
   </g>
   <g id="patch_17">
    <path d="M 216.043443 84.441648 
L 231.143977 84.441648 
L 231.143977 84.436881 
L 216.043443 84.436881 
z
" clip-path="url(#p36700e78e7)" style="fill: url(#hbc6e64e9b3); opacity: 0.4"/>
   </g>
   <g id="matplotlib.axis_3">
    <g id="xtick_7">
     <g id="line2d_28">
      <g>
       <use xlink:href="#ma9fccb0748" x="172.899057" y="107.660304" style="stroke: #000000; stroke-width: 0.6"/>
      </g>
     </g>
     <g id="text_21">
      <!-- DINOv2+reg -->
      <g transform="translate(154.207964 119.507804) scale(0.07 -0.07)">
       <use xlink:href="#TimesNewRomanPSMT-44"/>
       <use xlink:href="#TimesNewRomanPSMT-49" transform="translate(72.216797 0)"/>
       <use xlink:href="#TimesNewRomanPSMT-4e" transform="translate(105.517578 0)"/>
       <use xlink:href="#TimesNewRomanPSMT-4f" transform="translate(177.734375 0)"/>
       <use xlink:href="#TimesNewRomanPSMT-76" transform="translate(249.951172 0)"/>
       <use xlink:href="#TimesNewRomanPSMT-32" transform="translate(299.951172 0)"/>
       <use xlink:href="#TimesNewRomanPSMT-2b" transform="translate(349.951172 0)"/>
       <use xlink:href="#TimesNewRomanPSMT-72" transform="translate(406.347656 0)"/>
       <use xlink:href="#TimesNewRomanPSMT-65" transform="translate(439.648438 0)"/>
       <use xlink:href="#TimesNewRomanPSMT-67" transform="translate(484.033203 0)"/>
      </g>
     </g>
    </g>
    <g id="xtick_8">
     <g id="line2d_29">
      <g>
       <use xlink:href="#ma9fccb0748" x="216.043443" y="107.660304" style="stroke: #000000; stroke-width: 0.6"/>
      </g>
     </g>
     <g id="text_22">
      <!-- DINOv3 -->
      <g transform="translate(203.795083 119.520929) scale(0.07 -0.07)">
       <use xlink:href="#TimesNewRomanPSMT-44"/>
       <use xlink:href="#TimesNewRomanPSMT-49" transform="translate(72.216797 0)"/>
       <use xlink:href="#TimesNewRomanPSMT-4e" transform="translate(105.517578 0)"/>
       <use xlink:href="#TimesNewRomanPSMT-4f" transform="translate(177.734375 0)"/>
       <use xlink:href="#TimesNewRomanPSMT-76" transform="translate(249.951172 0)"/>
       <use xlink:href="#TimesNewRomanPSMT-33" transform="translate(299.951172 0)"/>
      </g>
     </g>
    </g>
   </g>
   <g id="matplotlib.axis_4">
    <g id="ytick_7">
     <g id="line2d_30">
      <g>
       <use xlink:href="#mb7dd669dff" x="154.13125" y="101.282818" style="stroke: #000000; stroke-width: 0.6"/>
      </g>
     </g>
     <g id="text_23">
      <!-- −5 -->
      <g transform="translate(139.683906 103.713131) scale(0.07 -0.07)">
       <defs>
        <path id="TimesNewRomanPSMT-2212" d="M 3484 2000 
L 116 2000 
L 116 2256 
L 3484 2256 
L 3484 2000 
z
" transform="scale(0.015625)"/>
       </defs>
       <use xlink:href="#TimesNewRomanPSMT-2212"/>
       <use xlink:href="#TimesNewRomanPSMT-35" transform="translate(56.396484 0)"/>
      </g>
     </g>
    </g>
    <g id="ytick_8">
     <g id="line2d_31">
      <g>
       <use xlink:href="#mb7dd669dff" x="154.13125" y="85.564336" style="stroke: #000000; stroke-width: 0.6"/>
      </g>
     </g>
     <g id="text_24">
      <!-- 0 -->
      <g transform="translate(143.63125 87.994648) scale(0.07 -0.07)">
       <use xlink:href="#TimesNewRomanPSMT-30"/>
      </g>
     </g>
    </g>
    <g id="ytick_9">
     <g id="line2d_32">
      <g>
       <use xlink:href="#mb7dd669dff" x="154.13125" y="69.845853" style="stroke: #000000; stroke-width: 0.6"/>
      </g>
     </g>
     <g id="text_25">
      <!-- 5 -->
      <g transform="translate(143.63125 72.276166) scale(0.07 -0.07)">
       <use xlink:href="#TimesNewRomanPSMT-35"/>
      </g>
     </g>
    </g>
    <g id="ytick_10">
     <g id="line2d_33">
      <g>
       <use xlink:href="#mb7dd669dff" x="154.13125" y="54.127371" style="stroke: #000000; stroke-width: 0.6"/>
      </g>
     </g>
     <g id="text_26">
      <!-- 10 -->
      <g transform="translate(140.13125 56.557684) scale(0.07 -0.07)">
       <use xlink:href="#TimesNewRomanPSMT-31"/>
       <use xlink:href="#TimesNewRomanPSMT-30" transform="translate(50 0)"/>
      </g>
     </g>
    </g>
    <g id="ytick_11">
     <g id="line2d_34">
      <g>
       <use xlink:href="#mb7dd669dff" x="154.13125" y="38.408889" style="stroke: #000000; stroke-width: 0.6"/>
      </g>
     </g>
     <g id="text_27">
      <!-- 15 -->
      <g transform="translate(140.13125 40.839201) scale(0.07 -0.07)">
       <use xlink:href="#TimesNewRomanPSMT-31"/>
       <use xlink:href="#TimesNewRomanPSMT-35" transform="translate(50 0)"/>
      </g>
     </g>
    </g>
    <g id="ytick_12">
     <g id="line2d_35">
      <g>
       <use xlink:href="#mb7dd669dff" x="154.13125" y="22.690406" style="stroke: #000000; stroke-width: 0.6"/>
      </g>
     </g>
     <g id="text_28">
      <!-- 20 -->
      <g transform="translate(140.13125 25.120719) scale(0.07 -0.07)">
       <use xlink:href="#TimesNewRomanPSMT-32"/>
       <use xlink:href="#TimesNewRomanPSMT-30" transform="translate(50 0)"/>
      </g>
     </g>
    </g>
    <g id="text_29">
     <!-- $\Delta$ CLS attention (pp) -->
     <g transform="translate(133.923906 97.093104) rotate(-90) scale(0.08 -0.08)">
      <defs>
       <path id="DejaVuSerif-394" d="M 4350 0 
L 244 0 
L 2034 4666 
L 2559 4666 
L 4350 0 
z
M 3506 331 
L 2138 3909 
L 763 331 
L 3506 331 
z
" transform="scale(0.015625)"/>
       <path id="TimesNewRomanPSMT-74" d="M 1031 3803 
L 1031 2863 
L 1700 2863 
L 1700 2644 
L 1031 2644 
L 1031 788 
Q 1031 509 1111 412 
Q 1191 316 1316 316 
Q 1419 316 1516 380 
Q 1613 444 1666 569 
L 1788 569 
Q 1678 263 1478 108 
Q 1278 -47 1066 -47 
Q 922 -47 784 33 
Q 647 113 581 261 
Q 516 409 516 719 
L 516 2644 
L 63 2644 
L 63 2747 
Q 234 2816 414 2980 
Q 594 3144 734 3369 
Q 806 3488 934 3803 
L 1031 3803 
z
" transform="scale(0.015625)"/>
       <path id="TimesNewRomanPSMT-70" d="M -6 2578 
L 875 2934 
L 994 2934 
L 994 2266 
Q 1216 2644 1439 2795 
Q 1663 2947 1909 2947 
Q 2341 2947 2628 2609 
Q 2981 2197 2981 1534 
Q 2981 794 2556 309 
Q 2206 -88 1675 -88 
Q 1444 -88 1275 -22 
Q 1150 25 994 166 
L 994 -706 
Q 994 -1000 1030 -1079 
Q 1066 -1159 1155 -1206 
Q 1244 -1253 1478 -1253 
L 1478 -1369 
L -22 -1369 
L -22 -1253 
L 56 -1253 
Q 228 -1256 350 -1188 
Q 409 -1153 442 -1076 
Q 475 -1000 475 -688 
L 475 2019 
Q 475 2297 450 2372 
Q 425 2447 370 2484 
Q 316 2522 222 2522 
Q 147 2522 31 2478 
L -6 2578 
z
M 994 2081 
L 994 1013 
Q 994 666 1022 556 
Q 1066 375 1236 237 
Q 1406 100 1666 100 
Q 1978 100 2172 344 
Q 2425 663 2425 1241 
Q 2425 1897 2138 2250 
Q 1938 2494 1663 2494 
Q 1513 2494 1366 2419 
Q 1253 2363 994 2081 
z
" transform="scale(0.015625)"/>
      </defs>
      <use xlink:href="#DejaVuSerif-394" transform="translate(0 0.09375)"/>
      <use xlink:href="#TimesNewRomanPSMT-20" transform="translate(72.216797 0.09375)"/>
      <use xlink:href="#TimesNewRomanPSMT-43" transform="translate(97.216797 0.09375)"/>
      <use xlink:href="#TimesNewRomanPSMT-4c" transform="translate(163.916016 0.09375)"/>
      <use xlink:href="#TimesNewRomanPSMT-53" transform="translate(225 0.09375)"/>
      <use xlink:href="#TimesNewRomanPSMT-20" transform="translate(280.615234 0.09375)"/>
      <use xlink:href="#TimesNewRomanPSMT-61" transform="translate(305.615234 0.09375)"/>
      <use xlink:href="#TimesNewRomanPSMT-74" transform="translate(350 0.09375)"/>
      <use xlink:href="#TimesNewRomanPSMT-74" transform="translate(377.783203 0.09375)"/>
      <use xlink:href="#TimesNewRomanPSMT-65" transform="translate(405.566406 0.09375)"/>
      <use xlink:href="#TimesNewRomanPSMT-6e" transform="translate(449.951172 0.09375)"/>
      <use xlink:href="#TimesNewRomanPSMT-74" transform="translate(499.951172 0.09375)"/>
      <use xlink:href="#TimesNewRomanPSMT-69" transform="translate(527.734375 0.09375)"/>
      <use xlink:href="#TimesNewRomanPSMT-6f" transform="translate(555.517578 0.09375)"/>
      <use xlink:href="#TimesNewRomanPSMT-6e" transform="translate(605.517578 0.09375)"/>
      <use xlink:href="#TimesNewRomanPSMT-20" transform="translate(655.517578 0.09375)"/>
      <use xlink:href="#TimesNewRomanPSMT-28" transform="translate(680.517578 0.09375)"/>
      <use xlink:href="#TimesNewRomanPSMT-70" transform="translate(713.818359 0.09375)"/>
      <use xlink:href="#TimesNewRomanPSMT-70" transform="translate(763.818359 0.09375)"/>
      <use xlink:href="#TimesNewRomanPSMT-29" transform="translate(813.818359 0.09375)"/>
     </g>
    </g>
   </g>
   <g id="line2d_36">
    <path d="M 154.13125 85.564336 
L 234.81125 85.564336 
" clip-path="url(#p36700e78e7)" style="fill: none; stroke: #000000; stroke-width: 0.4; stroke-linecap: square"/>
   </g>
   <g id="patch_18">
    <path d="M 154.13125 107.660304 
L 154.13125 18.685904 
" style="fill: none; stroke: #000000; stroke-width: 0.6; stroke-linejoin: miter; stroke-linecap: square"/>
   </g>
   <g id="patch_19">
    <path d="M 154.13125 107.660304 
L 234.81125 107.660304 
" style="fill: none; stroke: #000000; stroke-width: 0.6; stroke-linejoin: miter; stroke-linecap: square"/>
   </g>
   <g id="text_30">
    <!-- -6.2 -->
    <g style="fill: #666666" transform="translate(161.391368 102.763829) scale(0.05 -0.05)">
     <use xlink:href="#TimesNewRomanPSMT-2d"/>
     <use xlink:href="#TimesNewRomanPSMT-36" transform="translate(33.300781 0)"/>
     <use xlink:href="#TimesNewRomanPSMT-2e" transform="translate(83.300781 0)"/>
     <use xlink:href="#TimesNewRomanPSMT-32" transform="translate(108.300781 0)"/>
    </g>
   </g>
   <g id="text_31">
    <!-- +0.1 -->
    <g style="fill: #666666" transform="translate(175.914559 83.034899) scale(0.05 -0.05)">
     <use xlink:href="#TimesNewRomanPSMT-2b"/>
     <use xlink:href="#TimesNewRomanPSMT-30" transform="translate(56.396484 0)"/>
     <use xlink:href="#TimesNewRomanPSMT-2e" transform="translate(106.396484 0)"/>
     <use xlink:href="#TimesNewRomanPSMT-31" transform="translate(131.396484 0)"/>
    </g>
   </g>
   <g id="text_32">
    <!-- +19.9 -->
    <g style="fill: #666666" transform="translate(202.70841 20.59577) scale(0.05 -0.05)">
     <defs>
      <path id="TimesNewRomanPSMT-39" d="M 338 -88 
L 338 28 
Q 744 34 1094 217 
Q 1444 400 1770 856 
Q 2097 1313 2225 1859 
Q 1734 1544 1338 1544 
Q 891 1544 572 1889 
Q 253 2234 253 2806 
Q 253 3363 572 3797 
Q 956 4325 1575 4325 
Q 2097 4325 2469 3894 
Q 2925 3359 2925 2575 
Q 2925 1869 2578 1258 
Q 2231 647 1613 244 
Q 1109 -88 516 -88 
L 338 -88 
z
M 2275 2091 
Q 2331 2497 2331 2741 
Q 2331 3044 2228 3395 
Q 2125 3747 1936 3934 
Q 1747 4122 1506 4122 
Q 1228 4122 1018 3872 
Q 809 3622 809 3128 
Q 809 2469 1088 2097 
Q 1291 1828 1588 1828 
Q 1731 1828 1928 1897 
Q 2125 1966 2275 2091 
z
" transform="scale(0.015625)"/>
     </defs>
     <use xlink:href="#TimesNewRomanPSMT-2b"/>
     <use xlink:href="#TimesNewRomanPSMT-31" transform="translate(56.396484 0)"/>
     <use xlink:href="#TimesNewRomanPSMT-39" transform="translate(106.396484 0)"/>
     <use xlink:href="#TimesNewRomanPSMT-2e" transform="translate(156.396484 0)"/>
     <use xlink:href="#TimesNewRomanPSMT-39" transform="translate(181.396484 0)"/>
    </g>
   </g>
   <g id="text_33">
    <!-- +0.4 -->
    <g style="fill: #666666" transform="translate(219.058944 82.109871) scale(0.05 -0.05)">
     <use xlink:href="#TimesNewRomanPSMT-2b"/>
     <use xlink:href="#TimesNewRomanPSMT-30" transform="translate(56.396484 0)"/>
     <use xlink:href="#TimesNewRomanPSMT-2e" transform="translate(106.396484 0)"/>
     <use xlink:href="#TimesNewRomanPSMT-34" transform="translate(131.396484 0)"/>
    </g>
   </g>
   <g id="text_34">
    <!-- (b) -->
    <g transform="translate(133.15445 13.979913) scale(0.09 -0.09)">
     <defs>
      <path id="TimesNewRomanPS-BoldMT-62" d="M 1347 4238 
L 1347 2628 
Q 1716 3009 2153 3009 
Q 2453 3009 2718 2832 
Q 2984 2656 3134 2331 
Q 3284 2006 3284 1581 
Q 3284 1103 3093 712 
Q 2903 322 2584 117 
Q 2266 -88 1856 -88 
Q 1619 -88 1434 -12 
Q 1250 63 1072 231 
L 588 -84 
L 481 -84 
L 481 3631 
Q 481 3884 459 3944 
Q 428 4031 361 4073 
Q 294 4116 134 4122 
L 134 4238 
L 1347 4238 
z
M 1347 2350 
L 1347 1050 
Q 1347 653 1366 544 
Q 1397 359 1515 245 
Q 1634 131 1819 131 
Q 1978 131 2092 222 
Q 2206 313 2282 581 
Q 2359 850 2359 1550 
Q 2359 2222 2191 2472 
Q 2069 2653 1863 2653 
Q 1594 2653 1347 2350 
z
" transform="scale(0.015625)"/>
     </defs>
     <use xlink:href="#TimesNewRomanPS-BoldMT-28"/>
     <use xlink:href="#TimesNewRomanPS-BoldMT-62" transform="translate(33.300781 0)"/>
     <use xlink:href="#TimesNewRomanPS-BoldMT-29" transform="translate(88.916016 0)"/>
    </g>
   </g>
   <g id="legend_2">
    <g id="patch_20">
     <path d="M 159.98125 29.085904 
L 172.98125 29.085904 
L 172.98125 24.535904 
L 159.98125 24.535904 
z
" style="fill: #ccbb44; opacity: 0.9"/>
    </g>
    <g id="text_35">
     <!-- → patches -->
     <g transform="translate(178.18125 29.085904) scale(0.065 -0.065)">
      <defs>
       <path id="TimesNewRomanPSMT-2192" d="M 4859 2738 
Q 5275 2284 5578 2048 
Q 5881 1813 6150 1697 
L 6150 1556 
Q 5841 1406 5550 1173 
Q 5259 941 4856 491 
L 4616 491 
Q 4909 1119 5231 1456 
L 247 1456 
L 247 1772 
L 5231 1772 
Q 4994 2075 4900 2222 
Q 4806 2369 4622 2738 
L 4859 2738 
z
" transform="scale(0.015625)"/>
       <path id="TimesNewRomanPSMT-68" d="M 1041 4444 
L 1041 2350 
Q 1388 2731 1591 2839 
Q 1794 2947 1997 2947 
Q 2241 2947 2416 2812 
Q 2591 2678 2675 2391 
Q 2734 2191 2734 1659 
L 2734 647 
Q 2734 375 2778 275 
Q 2809 200 2884 156 
Q 2959 113 3159 113 
L 3159 0 
L 1753 0 
L 1753 113 
L 1819 113 
Q 2019 113 2097 173 
Q 2175 234 2206 353 
Q 2216 403 2216 647 
L 2216 1659 
Q 2216 2128 2167 2275 
Q 2119 2422 2012 2495 
Q 1906 2569 1756 2569 
Q 1603 2569 1437 2487 
Q 1272 2406 1041 2159 
L 1041 647 
Q 1041 353 1073 281 
Q 1106 209 1195 161 
Q 1284 113 1503 113 
L 1503 0 
L 84 0 
L 84 113 
Q 275 113 384 172 
Q 447 203 484 290 
Q 522 378 522 647 
L 522 3238 
Q 522 3728 498 3840 
Q 475 3953 426 3993 
Q 378 4034 297 4034 
Q 231 4034 84 3984 
L 41 4094 
L 897 4444 
L 1041 4444 
z
" transform="scale(0.015625)"/>
      </defs>
      <use xlink:href="#TimesNewRomanPSMT-2192"/>
      <use xlink:href="#TimesNewRomanPSMT-20" transform="translate(100 0)"/>
      <use xlink:href="#TimesNewRomanPSMT-70" transform="translate(125 0)"/>
      <use xlink:href="#TimesNewRomanPSMT-61" transform="translate(175 0)"/>
      <use xlink:href="#TimesNewRomanPSMT-74" transform="translate(219.384766 0)"/>
      <use xlink:href="#TimesNewRomanPSMT-63" transform="translate(247.167969 0)"/>
      <use xlink:href="#TimesNewRomanPSMT-68" transform="translate(291.552734 0)"/>
      <use xlink:href="#TimesNewRomanPSMT-65" transform="translate(341.552734 0)"/>
      <use xlink:href="#TimesNewRomanPSMT-73" transform="translate(385.9375 0)"/>
     </g>
    </g>
    <g id="patch_21">
     <path d="M 159.98125 38.276295 
L 172.98125 38.276295 
L 172.98125 33.726295 
L 159.98125 33.726295 
z
" style="fill: #bbbbbb; opacity: 0.9"/>
    </g>
    <g id="text_36">
     <!-- → CLS (self) -->
     <g transform="translate(178.18125 38.276295) scale(0.065 -0.065)">
      <defs>
       <path id="TimesNewRomanPSMT-6c" d="M 1184 4444 
L 1184 647 
Q 1184 378 1223 290 
Q 1263 203 1344 158 
Q 1425 113 1647 113 
L 1647 0 
L 244 0 
L 244 113 
Q 441 113 512 153 
Q 584 194 625 287 
Q 666 381 666 647 
L 666 3247 
Q 666 3731 644 3842 
Q 622 3953 573 3993 
Q 525 4034 450 4034 
Q 369 4034 244 3984 
L 191 4094 
L 1044 4444 
L 1184 4444 
z
" transform="scale(0.015625)"/>
       <path id="TimesNewRomanPSMT-66" d="M 1319 2638 
L 1319 756 
Q 1319 356 1406 250 
Q 1522 113 1716 113 
L 1975 113 
L 1975 0 
L 266 0 
L 266 113 
L 394 113 
Q 519 113 622 175 
Q 725 238 764 344 
Q 803 450 803 756 
L 803 2638 
L 247 2638 
L 247 2863 
L 803 2863 
L 803 3050 
Q 803 3478 940 3775 
Q 1078 4072 1361 4255 
Q 1644 4438 1997 4438 
Q 2325 4438 2600 4225 
Q 2781 4084 2781 3909 
Q 2781 3816 2700 3733 
Q 2619 3650 2525 3650 
Q 2453 3650 2373 3701 
Q 2294 3753 2178 3923 
Q 2063 4094 1966 4153 
Q 1869 4213 1750 4213 
Q 1606 4213 1506 4136 
Q 1406 4059 1362 3898 
Q 1319 3738 1319 3069 
L 1319 2863 
L 2056 2863 
L 2056 2638 
L 1319 2638 
z
" transform="scale(0.015625)"/>
      </defs>
      <use xlink:href="#TimesNewRomanPSMT-2192"/>
      <use xlink:href="#TimesNewRomanPSMT-20" transform="translate(100 0)"/>
      <use xlink:href="#TimesNewRomanPSMT-43" transform="translate(125 0)"/>
      <use xlink:href="#TimesNewRomanPSMT-4c" transform="translate(191.699219 0)"/>
      <use xlink:href="#TimesNewRomanPSMT-53" transform="translate(252.783203 0)"/>
      <use xlink:href="#TimesNewRomanPSMT-20" transform="translate(308.398438 0)"/>
      <use xlink:href="#TimesNewRomanPSMT-28" transform="translate(333.398438 0)"/>
      <use xlink:href="#TimesNewRomanPSMT-73" transform="translate(366.699219 0)"/>
      <use xlink:href="#TimesNewRomanPSMT-65" transform="translate(405.615234 0)"/>
      <use xlink:href="#TimesNewRomanPSMT-6c" transform="translate(450 0)"/>
      <use xlink:href="#TimesNewRomanPSMT-66" transform="translate(477.783203 0)"/>
      <use xlink:href="#TimesNewRomanPSMT-29" transform="translate(511.083984 0)"/>
     </g>
    </g>
    <g id="patch_22">
     <path d="M 159.98125 47.466685 
L 172.98125 47.466685 
L 172.98125 42.916685 
L 159.98125 42.916685 
z
" style="fill: url(#h88a4dce2d5); opacity: 0.4"/>
    </g>
    <g id="text_37">
     <!-- Mean-sub → patches -->
     <g transform="translate(178.18125 47.466685) scale(0.065 -0.065)">
      <use xlink:href="#TimesNewRomanPSMT-4d"/>
      <use xlink:href="#TimesNewRomanPSMT-65" transform="translate(88.916016 0)"/>
      <use xlink:href="#TimesNewRomanPSMT-61" transform="translate(133.300781 0)"/>
      <use xlink:href="#TimesNewRomanPSMT-6e" transform="translate(177.685547 0)"/>
      <use xlink:href="#TimesNewRomanPSMT-2d" transform="translate(227.685547 0)"/>
      <use xlink:href="#TimesNewRomanPSMT-73" transform="translate(260.986328 0)"/>
      <use xlink:href="#TimesNewRomanPSMT-75" transform="translate(299.902344 0)"/>
      <use xlink:href="#TimesNewRomanPSMT-62" transform="translate(349.902344 0)"/>
      <use xlink:href="#TimesNewRomanPSMT-20" transform="translate(399.902344 0)"/>
      <use xlink:href="#TimesNewRomanPSMT-2192" transform="translate(424.902344 0)"/>
      <use xlink:href="#TimesNewRomanPSMT-20" transform="translate(524.902344 0)"/>
      <use xlink:href="#TimesNewRomanPSMT-70" transform="translate(549.902344 0)"/>
      <use xlink:href="#TimesNewRomanPSMT-61" transform="translate(599.902344 0)"/>
      <use xlink:href="#TimesNewRomanPSMT-74" transform="translate(644.287109 0)"/>
      <use xlink:href="#TimesNewRomanPSMT-63" transform="translate(672.070312 0)"/>
      <use xlink:href="#TimesNewRomanPSMT-68" transform="translate(716.455078 0)"/>
      <use xlink:href="#TimesNewRomanPSMT-65" transform="translate(766.455078 0)"/>
      <use xlink:href="#TimesNewRomanPSMT-73" transform="translate(810.839844 0)"/>
     </g>
    </g>
   </g>
  </g>
 </g>
 <defs>
  <clipPath id="p9eee57a549">
   <rect x="37.73125" y="18.685904" width="80.68" height="88.9744"/>
  </clipPath>
  <clipPath id="p36700e78e7">
   <rect x="154.13125" y="18.685904" width="80.68" height="88.9744"/>
  </clipPath>
 </defs>
 <defs>
  <pattern id="h88a4dce2d5" patternUnits="userSpaceOnUse" x="0" y="0" width="72" height="72">
   <rect x="0" y="0" width="73" height="73" fill="#ccbb44"/>
   <path d="M -36 36 
L 36 -36 
M -30 42 
L 42 -30 
M -24 48 
L 48 -24 
M -18 54 
L 54 -18 
M -12 60 
L 60 -12 
M -6 66 
L 66 -6 
M 0 72 
L 72 0 
M 6 78 
L 78 6 
M 12 84 
L 84 12 
M 18 90 
L 90 18 
M 24 96 
L 96 24 
M 30 102 
L 102 30 
M 36 108 
L 108 36 
" style="fill: #000000; stroke: #000000; stroke-width: 1.0; stroke-linecap: butt; stroke-linejoin: miter"/>
  </pattern>
  <pattern id="hbc6e64e9b3" patternUnits="userSpaceOnUse" x="0" y="0" width="72" height="72">
   <rect x="0" y="0" width="73" height="73" fill="#bbbbbb"/>
   <path d="M -36 36 
L 36 -36 
M -30 42 
L 42 -30 
M -24 48 
L 48 -24 
M -18 54 
L 54 -18 
M -12 60 
L 60 -12 
M -6 66 
L 66 -6 
M 0 72 
L 72 0 
M 6 78 
L 78 6 
M 12 84 
L 84 12 
M 18 90 
L 90 18 
M 24 96 
L 96 24 
M 30 102 
L 102 30 
M 36 108 
L 108 36 
" style="fill: #000000; stroke: #000000; stroke-width: 1.0; stroke-linecap: butt; stroke-linejoin: miter"/>
  </pattern>
 </defs>
</svg>
